<?xml version="1.0" encoding="UTF-8" standalone="no"?>
<!-- Created with Inkscape (http://www.inkscape.org/) -->

<svg
   version="1.1"
   id="svg1"
   width="1666.5542"
   height="288"
   viewBox="0 0 1666.5542 288"
   xmlns="http://www.w3.org/2000/svg"
   xmlns:svg="http://www.w3.org/2000/svg">
  <defs
     id="defs1">
    <clipPath
       clipPathUnits="userSpaceOnUse"
       id="clipPath3">
      <path
         d="M 377.55937,7.2 H 809.55938 V 208.8 H 377.55937 Z"
         id="path3" />
    </clipPath>
    <clipPath
       clipPathUnits="userSpaceOnUse"
       id="clipPath5">
      <path
         d="M 377.55937,7.2 H 809.55938 V 208.8 H 377.55937 Z"
         id="path5" />
    </clipPath>
    <clipPath
       clipPathUnits="userSpaceOnUse"
       id="clipPath7">
      <path
         d="M 377.55937,7.2 H 809.55938 V 208.8 H 377.55937 Z"
         id="path7" />
    </clipPath>
    <clipPath
       clipPathUnits="userSpaceOnUse"
       id="clipPath9">
      <path
         d="M 377.55937,7.2 H 809.55938 V 208.8 H 377.55937 Z"
         id="path9" />
    </clipPath>
    <clipPath
       clipPathUnits="userSpaceOnUse"
       id="clipPath11">
      <path
         d="M 377.55937,7.2 H 809.55938 V 208.8 H 377.55937 Z"
         id="path11" />
    </clipPath>
    <clipPath
       clipPathUnits="userSpaceOnUse"
       id="clipPath13">
      <path
         d="M 377.55937,7.2 H 809.55938 V 208.8 H 377.55937 Z"
         id="path13" />
    </clipPath>
    <clipPath
       clipPathUnits="userSpaceOnUse"
       id="clipPath15">
      <path
         d="M 377.55937,7.2 H 809.55938 V 208.8 H 377.55937 Z"
         id="path15" />
    </clipPath>
    <clipPath
       clipPathUnits="userSpaceOnUse"
       id="clipPath17">
      <path
         d="M 377.55937,7.2 H 809.55938 V 208.8 H 377.55937 Z"
         id="path17" />
    </clipPath>
    <clipPath
       clipPathUnits="userSpaceOnUse"
       id="clipPath19">
      <path
         d="M 377.55937,7.2 H 809.55938 V 208.8 H 377.55937 Z"
         id="path19" />
    </clipPath>
    <clipPath
       clipPathUnits="userSpaceOnUse"
       id="clipPath21">
      <path
         d="M 377.55937,7.2 H 809.55938 V 208.8 H 377.55937 Z"
         id="path21" />
    </clipPath>
    <clipPath
       clipPathUnits="userSpaceOnUse"
       id="clipPath23">
      <path
         d="M 377.55937,7.2 H 809.55938 V 208.8 H 377.55937 Z"
         id="path23" />
    </clipPath>
    <clipPath
       clipPathUnits="userSpaceOnUse"
       id="clipPath25">
      <path
         d="M 377.55937,7.2 H 809.55938 V 208.8 H 377.55937 Z"
         id="path25" />
    </clipPath>
    <clipPath
       clipPathUnits="userSpaceOnUse"
       id="clipPath27">
      <path
         d="M 377.55937,7.2 H 809.55938 V 208.8 H 377.55937 Z"
         id="path27" />
    </clipPath>
    <clipPath
       clipPathUnits="userSpaceOnUse"
       id="clipPath29">
      <path
         d="M 377.55937,7.2 H 809.55938 V 208.8 H 377.55937 Z"
         id="path29" />
    </clipPath>
    <clipPath
       clipPathUnits="userSpaceOnUse"
       id="clipPath31">
      <path
         d="M 377.55937,7.2 H 809.55938 V 208.8 H 377.55937 Z"
         id="path31" />
    </clipPath>
    <clipPath
       clipPathUnits="userSpaceOnUse"
       id="clipPath33">
      <path
         d="M 377.55937,7.2 H 809.55938 V 208.8 H 377.55937 Z"
         id="path33" />
    </clipPath>
    <clipPath
       clipPathUnits="userSpaceOnUse"
       id="clipPath35">
      <path
         d="M 377.55937,7.2 H 809.55938 V 208.8 H 377.55937 Z"
         id="path35" />
    </clipPath>
    <clipPath
       clipPathUnits="userSpaceOnUse"
       id="clipPath37">
      <path
         d="M 377.55937,7.2 H 809.55938 V 208.8 H 377.55937 Z"
         id="path37" />
    </clipPath>
    <clipPath
       clipPathUnits="userSpaceOnUse"
       id="clipPath39">
      <path
         d="M 377.55937,7.2 H 809.55938 V 208.8 H 377.55937 Z"
         id="path39" />
    </clipPath>
    <clipPath
       clipPathUnits="userSpaceOnUse"
       id="clipPath41">
      <path
         d="M 377.55937,7.2 H 809.55938 V 208.8 H 377.55937 Z"
         id="path41" />
    </clipPath>
    <clipPath
       clipPathUnits="userSpaceOnUse"
       id="clipPath43">
      <path
         d="M 377.55937,7.2 H 809.55938 V 208.8 H 377.55937 Z"
         id="path43" />
    </clipPath>
    <clipPath
       clipPathUnits="userSpaceOnUse"
       id="clipPath45">
      <path
         d="M 377.55937,7.2 H 809.55938 V 208.8 H 377.55937 Z"
         id="path45" />
    </clipPath>
    <clipPath
       clipPathUnits="userSpaceOnUse"
       id="clipPath47">
      <path
         d="M 377.55937,7.2 H 809.55938 V 208.8 H 377.55937 Z"
         id="path47" />
    </clipPath>
    <clipPath
       clipPathUnits="userSpaceOnUse"
       id="clipPath49">
      <path
         d="M 377.55937,7.2 H 809.55938 V 208.8 H 377.55937 Z"
         id="path49" />
    </clipPath>
    <clipPath
       clipPathUnits="userSpaceOnUse"
       id="clipPath51">
      <path
         d="M 377.55937,7.2 H 809.55938 V 208.8 H 377.55937 Z"
         id="path51" />
    </clipPath>
    <clipPath
       clipPathUnits="userSpaceOnUse"
       id="clipPath53">
      <path
         d="M 377.55937,7.2 H 809.55938 V 208.8 H 377.55937 Z"
         id="path53" />
    </clipPath>
    <clipPath
       clipPathUnits="userSpaceOnUse"
       id="clipPath55">
      <path
         d="M 377.55937,7.2 H 809.55938 V 208.8 H 377.55937 Z"
         id="path55" />
    </clipPath>
    <clipPath
       clipPathUnits="userSpaceOnUse"
       id="clipPath57">
      <path
         d="M 377.55937,7.2 H 809.55938 V 208.8 H 377.55937 Z"
         id="path57" />
    </clipPath>
    <clipPath
       clipPathUnits="userSpaceOnUse"
       id="clipPath59">
      <path
         d="M 377.55937,7.2 H 809.55938 V 208.8 H 377.55937 Z"
         id="path59" />
    </clipPath>
  </defs>
  <g
     id="g1">
    <path
       id="path1"
       d="M 0,0 H 1249.9156 V 216 H 0 Z"
       style="fill:#ffffff;fill-opacity:1;fill-rule:nonzero;stroke:none"
       transform="matrix(1.3333333,0,0,-1.3333333,0,288)" />
    <path
       id="path2"
       d="M 323.55937,208.8 863.55938,7.2"
       style="fill:none;stroke:#ffffff;stroke-width:1.5;stroke-linecap:square;stroke-linejoin:round;stroke-miterlimit:10;stroke-dasharray:none;stroke-opacity:1"
       transform="matrix(1.3333333,0,0,-1.3333333,0,288)"
       clip-path="url(#clipPath3)" />
    <path
       id="path4"
       d="M 458.55937,165.6 H 728.55938"
       style="fill:none;stroke:#000000;stroke-width:2;stroke-linecap:square;stroke-linejoin:round;stroke-miterlimit:10;stroke-dasharray:none;stroke-opacity:1"
       transform="matrix(1.3333333,0,0,-1.3333333,0,288)"
       clip-path="url(#clipPath5)" />
    <path
       id="path6"
       d="M 728.55938,176.4 V 165.6"
       style="fill:none;stroke:#000000;stroke-width:2;stroke-linecap:square;stroke-linejoin:round;stroke-miterlimit:10;stroke-dasharray:none;stroke-opacity:1"
       transform="matrix(1.3333333,0,0,-1.3333333,0,288)"
       clip-path="url(#clipPath7)" />
    <path
       id="path8"
       d="m 711.68438,171 v -5.4"
       style="fill:none;stroke:#000000;stroke-width:2;stroke-linecap:square;stroke-linejoin:round;stroke-miterlimit:10;stroke-dasharray:none;stroke-opacity:1"
       transform="matrix(1.3333333,0,0,-1.3333333,0,288)"
       clip-path="url(#clipPath9)" />
    <path
       id="path10"
       d="M 694.80938,176.4 V 165.6"
       style="fill:none;stroke:#000000;stroke-width:2;stroke-linecap:square;stroke-linejoin:round;stroke-miterlimit:10;stroke-dasharray:none;stroke-opacity:1"
       transform="matrix(1.3333333,0,0,-1.3333333,0,288)"
       clip-path="url(#clipPath11)" />
    <path
       id="path12"
       d="m 677.93438,171 v -5.4"
       style="fill:none;stroke:#000000;stroke-width:2;stroke-linecap:square;stroke-linejoin:round;stroke-miterlimit:10;stroke-dasharray:none;stroke-opacity:1"
       transform="matrix(1.3333333,0,0,-1.3333333,0,288)"
       clip-path="url(#clipPath13)" />
    <path
       id="path14"
       d="M 661.05938,176.4 V 165.6"
       style="fill:none;stroke:#000000;stroke-width:2;stroke-linecap:square;stroke-linejoin:round;stroke-miterlimit:10;stroke-dasharray:none;stroke-opacity:1"
       transform="matrix(1.3333333,0,0,-1.3333333,0,288)"
       clip-path="url(#clipPath15)" />
    <path
       id="path16"
       d="m 644.18438,171 v -5.4"
       style="fill:none;stroke:#000000;stroke-width:2;stroke-linecap:square;stroke-linejoin:round;stroke-miterlimit:10;stroke-dasharray:none;stroke-opacity:1"
       transform="matrix(1.3333333,0,0,-1.3333333,0,288)"
       clip-path="url(#clipPath17)" />
    <path
       id="path18"
       d="M 627.30938,176.4 V 165.6"
       style="fill:none;stroke:#000000;stroke-width:2;stroke-linecap:square;stroke-linejoin:round;stroke-miterlimit:10;stroke-dasharray:none;stroke-opacity:1"
       transform="matrix(1.3333333,0,0,-1.3333333,0,288)"
       clip-path="url(#clipPath19)" />
    <path
       id="path20"
       d="m 610.43438,171 v -5.4"
       style="fill:none;stroke:#000000;stroke-width:2;stroke-linecap:square;stroke-linejoin:round;stroke-miterlimit:10;stroke-dasharray:none;stroke-opacity:1"
       transform="matrix(1.3333333,0,0,-1.3333333,0,288)"
       clip-path="url(#clipPath21)" />
    <path
       id="path22"
       d="M 593.55938,176.4 V 165.6"
       style="fill:none;stroke:#000000;stroke-width:2;stroke-linecap:square;stroke-linejoin:round;stroke-miterlimit:10;stroke-dasharray:none;stroke-opacity:1"
       transform="matrix(1.3333333,0,0,-1.3333333,0,288)"
       clip-path="url(#clipPath23)" />
    <path
       id="path24"
       d="m 576.68438,171 v -5.4"
       style="fill:none;stroke:#000000;stroke-width:2;stroke-linecap:square;stroke-linejoin:round;stroke-miterlimit:10;stroke-dasharray:none;stroke-opacity:1"
       transform="matrix(1.3333333,0,0,-1.3333333,0,288)"
       clip-path="url(#clipPath25)" />
    <path
       id="path26"
       d="M 559.80938,176.4 V 165.6"
       style="fill:none;stroke:#000000;stroke-width:2;stroke-linecap:square;stroke-linejoin:round;stroke-miterlimit:10;stroke-dasharray:none;stroke-opacity:1"
       transform="matrix(1.3333333,0,0,-1.3333333,0,288)"
       clip-path="url(#clipPath27)" />
    <path
       id="path28"
       d="m 542.93438,171 v -5.4"
       style="fill:none;stroke:#000000;stroke-width:2;stroke-linecap:square;stroke-linejoin:round;stroke-miterlimit:10;stroke-dasharray:none;stroke-opacity:1"
       transform="matrix(1.3333333,0,0,-1.3333333,0,288)"
       clip-path="url(#clipPath29)" />
    <path
       id="path30"
       d="M 526.05938,176.4 V 165.6"
       style="fill:none;stroke:#000000;stroke-width:2;stroke-linecap:square;stroke-linejoin:round;stroke-miterlimit:10;stroke-dasharray:none;stroke-opacity:1"
       transform="matrix(1.3333333,0,0,-1.3333333,0,288)"
       clip-path="url(#clipPath31)" />
    <path
       id="path32"
       d="m 509.18437,171 v -5.4"
       style="fill:none;stroke:#000000;stroke-width:2;stroke-linecap:square;stroke-linejoin:round;stroke-miterlimit:10;stroke-dasharray:none;stroke-opacity:1"
       transform="matrix(1.3333333,0,0,-1.3333333,0,288)"
       clip-path="url(#clipPath33)" />
    <path
       id="path34"
       d="M 492.30937,176.4 V 165.6"
       style="fill:none;stroke:#000000;stroke-width:2;stroke-linecap:square;stroke-linejoin:round;stroke-miterlimit:10;stroke-dasharray:none;stroke-opacity:1"
       transform="matrix(1.3333333,0,0,-1.3333333,0,288)"
       clip-path="url(#clipPath35)" />
    <path
       id="path36"
       d="m 475.43437,171 v -5.4"
       style="fill:none;stroke:#000000;stroke-width:2;stroke-linecap:square;stroke-linejoin:round;stroke-miterlimit:10;stroke-dasharray:none;stroke-opacity:1"
       transform="matrix(1.3333333,0,0,-1.3333333,0,288)"
       clip-path="url(#clipPath37)" />
    <path
       id="path38"
       d="M 458.55937,176.4 V 165.6"
       style="fill:none;stroke:#000000;stroke-width:2;stroke-linecap:square;stroke-linejoin:round;stroke-miterlimit:10;stroke-dasharray:none;stroke-opacity:1"
       transform="matrix(1.3333333,0,0,-1.3333333,0,288)"
       clip-path="url(#clipPath39)" />
    <path
       id="path40"
       d="m 688.05941,165.6 v -72 h 58.49997"
       style="fill:none;stroke:#000000;stroke-width:0.75;stroke-linecap:square;stroke-linejoin:round;stroke-miterlimit:10;stroke-dasharray:none;stroke-opacity:1"
       transform="matrix(1.3333333,0,0,-1.3333333,0,288)"
       clip-path="url(#clipPath41)" />
    <path
       id="path42"
       d="M 667.80937,165.6 V 76.32 h 78.75001"
       style="fill:none;stroke:#000000;stroke-width:0.75;stroke-linecap:square;stroke-linejoin:round;stroke-miterlimit:10;stroke-dasharray:none;stroke-opacity:1"
       transform="matrix(1.3333333,0,0,-1.3333333,0,288)"
       clip-path="url(#clipPath43)" />
    <path
       id="path44"
       d="M 634.05937,165.6 V 59.04 h 112.50001"
       style="fill:none;stroke:#000000;stroke-width:0.75;stroke-linecap:square;stroke-linejoin:round;stroke-miterlimit:10;stroke-dasharray:none;stroke-opacity:1"
       transform="matrix(1.3333333,0,0,-1.3333333,0,288)"
       clip-path="url(#clipPath45)" />
    <path
       id="path46"
       d="M 630.68439,165.6 V 41.76 h 115.87499"
       style="fill:none;stroke:#000000;stroke-width:0.75;stroke-linecap:square;stroke-linejoin:round;stroke-miterlimit:10;stroke-dasharray:none;stroke-opacity:1"
       transform="matrix(1.3333333,0,0,-1.3333333,0,288)"
       clip-path="url(#clipPath47)" />
    <path
       id="path48"
       d="M 603.68441,165.6 V 24.48 h 142.87497"
       style="fill:none;stroke:#000000;stroke-width:0.75;stroke-linecap:square;stroke-linejoin:round;stroke-miterlimit:10;stroke-dasharray:none;stroke-opacity:1"
       transform="matrix(1.3333333,0,0,-1.3333333,0,288)"
       clip-path="url(#clipPath49)" />
    <path
       id="path50"
       d="M 580.05937,165.6 V 41.76 h -130.5"
       style="fill:none;stroke:#000000;stroke-width:0.75;stroke-linecap:square;stroke-linejoin:round;stroke-miterlimit:10;stroke-dasharray:none;stroke-opacity:1"
       transform="matrix(1.3333333,0,0,-1.3333333,0,288)"
       clip-path="url(#clipPath51)" />
    <path
       id="path52"
       d="M 556.43439,165.6 V 59.04 H 449.55937"
       style="fill:none;stroke:#000000;stroke-width:0.75;stroke-linecap:square;stroke-linejoin:round;stroke-miterlimit:10;stroke-dasharray:none;stroke-opacity:1"
       transform="matrix(1.3333333,0,0,-1.3333333,0,288)"
       clip-path="url(#clipPath53)" />
    <path
       id="path54"
       d="M 509.18437,165.6 V 76.32 h -59.625"
       style="fill:none;stroke:#000000;stroke-width:0.75;stroke-linecap:square;stroke-linejoin:round;stroke-miterlimit:10;stroke-dasharray:none;stroke-opacity:1"
       transform="matrix(1.3333333,0,0,-1.3333333,0,288)"
       clip-path="url(#clipPath55)" />
    <path
       id="path56"
       d="m 472.05936,165.6 v -72 h -22.49999"
       style="fill:none;stroke:#000000;stroke-width:0.75;stroke-linecap:square;stroke-linejoin:round;stroke-miterlimit:10;stroke-dasharray:none;stroke-opacity:1"
       transform="matrix(1.3333333,0,0,-1.3333333,0,288)"
       clip-path="url(#clipPath57)" />
    <path
       id="path58"
       d="M 689.85941,151.2 H 470.25936"
       style="fill:none;stroke:#000000;stroke-width:2.5;stroke-linecap:square;stroke-linejoin:round;stroke-miterlimit:10;stroke-dasharray:none;stroke-opacity:1"
       transform="matrix(1.3333333,0,0,-1.3333333,0,288)"
       clip-path="url(#clipPath59)" />
    <path
       id="path60"
       d=""
       style="fill:#000000;fill-opacity:1;fill-rule:nonzero;stroke:none"
       aria-label="1"
       transform="matrix(1.3333333,0,0,1.3333333,966.74583,44.958333)" />
    <path
       id="path61"
       d=""
       style="fill:#000000;fill-opacity:1;fill-rule:nonzero;stroke:none"
       aria-label="2"
       transform="matrix(1.3333333,0,0,1.3333333,921.74583,44.958333)" />
    <path
       id="path62"
       d=""
       style="fill:#000000;fill-opacity:1;fill-rule:nonzero;stroke:none"
       aria-label="3"
       transform="matrix(1.3333333,0,0,1.3333333,876.74583,44.958333)" />
    <path
       id="path63"
       d=""
       style="fill:#000000;fill-opacity:1;fill-rule:nonzero;stroke:none"
       aria-label="4"
       transform="matrix(1.3333333,0,0,1.3333333,831.74583,44.958333)" />
    <path
       id="path64"
       d=""
       style="fill:#000000;fill-opacity:1;fill-rule:nonzero;stroke:none"
       aria-label="5"
       transform="matrix(1.3333333,0,0,1.3333333,786.74583,44.958333)" />
    <path
       id="path65"
       d=""
       style="fill:#000000;fill-opacity:1;fill-rule:nonzero;stroke:none"
       aria-label="6"
       transform="matrix(1.3333333,0,0,1.3333333,741.74583,44.958333)" />
    <path
       id="path66"
       d=""
       style="fill:#000000;fill-opacity:1;fill-rule:nonzero;stroke:none"
       aria-label="7"
       transform="matrix(1.3333333,0,0,1.3333333,696.74583,44.958333)" />
    <path
       id="path67"
       d=""
       style="fill:#000000;fill-opacity:1;fill-rule:nonzero;stroke:none"
       aria-label="8"
       transform="matrix(1.3333333,0,0,1.3333333,651.74583,44.958333)" />
    <path
       id="path68"
       d=""
       style="fill:#000000;fill-opacity:1;fill-rule:nonzero;stroke:none"
       aria-label="9"
       transform="matrix(1.3333333,0,0,1.3333333,606.74583,44.958333)" />
    <path
       id="path69"
       d=""
       style="fill:#000000;fill-opacity:1;fill-rule:nonzero;stroke:none"
       aria-label="Global cumulative grouped fixed-length channel mapping"
       transform="matrix(1.3333333,0,0,1.3333333,1007.4125,169.08542)" />
    <path
       id="path70"
       d=""
       style="fill:#000000;fill-opacity:1;fill-rule:nonzero;stroke:none"
       aria-label="2.2000"
       transform="matrix(1.3333333,0,0,1.3333333,935.4125,159.67708)" />
    <path
       id="path71"
       d=""
       style="fill:#000000;fill-opacity:1;fill-rule:nonzero;stroke:none"
       aria-label="Global cumulative grouped variable-length channel mapping"
       transform="matrix(1.3333333,0,0,1.3333333,1007.4125,192.12542)" />
    <path
       id="path72"
       d=""
       style="fill:#000000;fill-opacity:1;fill-rule:nonzero;stroke:none"
       aria-label="2.8000"
       transform="matrix(1.3333333,0,0,1.3333333,935.4125,182.71708)" />
    <path
       id="path73"
       d=""
       style="fill:#000000;fill-opacity:1;fill-rule:nonzero;stroke:none"
       aria-label="Global cumulative mapping"
       transform="matrix(1.3333333,0,0,1.3333333,1007.4125,215.16542)" />
    <path
       id="path74"
       d=""
       style="fill:#000000;fill-opacity:1;fill-rule:nonzero;stroke:none"
       aria-label="3.8000"
       transform="matrix(1.3333333,0,0,1.3333333,935.4125,205.75708)" />
    <path
       id="path75"
       d=""
       style="fill:#000000;fill-opacity:1;fill-rule:nonzero;stroke:none"
       aria-label="Grouped fixed-length channel mapping"
       transform="matrix(1.3333333,0,0,1.3333333,1007.4125,238.20542)" />
    <path
       id="path76"
       d=""
       style="fill:#000000;fill-opacity:1;fill-rule:nonzero;stroke:none"
       aria-label="3.9000"
       transform="matrix(1.3333333,0,0,1.3333333,935.4125,228.79708)" />
    <path
       id="path77"
       d=""
       style="fill:#000000;fill-opacity:1;fill-rule:nonzero;stroke:none"
       aria-label="Cumulative grouped fixed-length channel mapping"
       transform="matrix(1.3333333,0,0,1.3333333,1007.4125,261.24542)" />
    <path
       id="path78"
       d=""
       style="fill:#000000;fill-opacity:1;fill-rule:nonzero;stroke:none"
       aria-label="4.7000"
       transform="matrix(1.3333333,0,0,1.3333333,935.4125,251.83708)" />
    <path
       id="path79"
       d=""
       style="fill:#000000;fill-opacity:1;fill-rule:nonzero;stroke:none"
       aria-label="Cumulative grouped variable-length channel mapping"
       transform="matrix(1.3333333,0,0,1.3333333,9.6,238.20542)" />
    <path
       id="path80"
       d=""
       style="fill:#000000;fill-opacity:1;fill-rule:nonzero;stroke:none"
       aria-label="5.4000"
       transform="matrix(1.3333333,0,0,1.3333333,612.76667,228.79708)" />
    <path
       id="path81"
       d=""
       style="fill:#000000;fill-opacity:1;fill-rule:nonzero;stroke:none"
       aria-label="Cumulative mapping"
       transform="matrix(1.3333333,0,0,1.3333333,364.85,215.16542)" />
    <path
       id="path82"
       d=""
       style="fill:#000000;fill-opacity:1;fill-rule:nonzero;stroke:none"
       aria-label="6.1000"
       transform="matrix(1.3333333,0,0,1.3333333,612.76667,205.75708)" />
    <path
       id="path83"
       d=""
       style="fill:#000000;fill-opacity:1;fill-rule:nonzero;stroke:none"
       aria-label="Single value mapping"
       transform="matrix(1.3333333,0,0,1.3333333,355.975,192.12542)" />
    <path
       id="path84"
       d=""
       style="fill:#000000;fill-opacity:1;fill-rule:nonzero;stroke:none"
       aria-label="7.5000"
       transform="matrix(1.3333333,0,0,1.3333333,612.76667,182.71708)" />
    <path
       id="path85"
       d=""
       style="fill:#000000;fill-opacity:1;fill-rule:nonzero;stroke:none"
       aria-label="Grouped variable-length channel mapping"
       transform="matrix(1.3333333,0,0,1.3333333,135.20417,169.08542)" />
    <path
       id="path86"
       d=""
       style="fill:#000000;fill-opacity:1;fill-rule:nonzero;stroke:none"
       aria-label="8.6000"
       transform="matrix(1.3333333,0,0,1.3333333,612.76667,159.67708)" />
  </g>
</svg>
