<?xml version="1.0" encoding="UTF-8" standalone="no"?>
<!-- Created with Inkscape (http://www.inkscape.org/) -->

<svg
   version="1.1"
   id="svg1"
   width="779.0542"
   height="249.60001"
   viewBox="0 0 779.0542 249.60001"
   xmlns="http://www.w3.org/2000/svg"
   xmlns:svg="http://www.w3.org/2000/svg">
  <defs
     id="defs1">
    <clipPath
       clipPathUnits="userSpaceOnUse"
       id="clipPath3">
      <path
         d="m 100.95,7.2 h 432 V 180 h -432 z"
         id="path3" />
    </clipPath>
    <clipPath
       clipPathUnits="userSpaceOnUse"
       id="clipPath5">
      <path
         d="m 100.95,7.2 h 432 V 180 h -432 z"
         id="path5" />
    </clipPath>
    <clipPath
       clipPathUnits="userSpaceOnUse"
       id="clipPath7">
      <path
         d="m 100.95,7.2 h 432 V 180 h -432 z"
         id="path7" />
    </clipPath>
    <clipPath
       clipPathUnits="userSpaceOnUse"
       id="clipPath9">
      <path
         d="m 100.95,7.2 h 432 V 180 h -432 z"
         id="path9" />
    </clipPath>
    <clipPath
       clipPathUnits="userSpaceOnUse"
       id="clipPath11">
      <path
         d="m 100.95,7.2 h 432 V 180 h -432 z"
         id="path11" />
    </clipPath>
    <clipPath
       clipPathUnits="userSpaceOnUse"
       id="clipPath13">
      <path
         d="m 100.95,7.2 h 432 V 180 h -432 z"
         id="path13" />
    </clipPath>
    <clipPath
       clipPathUnits="userSpaceOnUse"
       id="clipPath15">
      <path
         d="m 100.95,7.2 h 432 V 180 h -432 z"
         id="path15" />
    </clipPath>
    <clipPath
       clipPathUnits="userSpaceOnUse"
       id="clipPath17">
      <path
         d="m 100.95,7.2 h 432 V 180 h -432 z"
         id="path17" />
    </clipPath>
    <clipPath
       clipPathUnits="userSpaceOnUse"
       id="clipPath19">
      <path
         d="m 100.95,7.2 h 432 V 180 h -432 z"
         id="path19" />
    </clipPath>
    <clipPath
       clipPathUnits="userSpaceOnUse"
       id="clipPath21">
      <path
         d="m 100.95,7.2 h 432 V 180 h -432 z"
         id="path21" />
    </clipPath>
    <clipPath
       clipPathUnits="userSpaceOnUse"
       id="clipPath23">
      <path
         d="m 100.95,7.2 h 432 V 180 h -432 z"
         id="path23" />
    </clipPath>
    <clipPath
       clipPathUnits="userSpaceOnUse"
       id="clipPath25">
      <path
         d="m 100.95,7.2 h 432 V 180 h -432 z"
         id="path25" />
    </clipPath>
    <clipPath
       clipPathUnits="userSpaceOnUse"
       id="clipPath27">
      <path
         d="m 100.95,7.2 h 432 V 180 h -432 z"
         id="path27" />
    </clipPath>
    <clipPath
       clipPathUnits="userSpaceOnUse"
       id="clipPath29">
      <path
         d="m 100.95,7.2 h 432 V 180 h -432 z"
         id="path29" />
    </clipPath>
    <clipPath
       clipPathUnits="userSpaceOnUse"
       id="clipPath31">
      <path
         d="m 100.95,7.2 h 432 V 180 h -432 z"
         id="path31" />
    </clipPath>
    <clipPath
       clipPathUnits="userSpaceOnUse"
       id="clipPath33">
      <path
         d="m 100.95,7.2 h 432 V 180 h -432 z"
         id="path33" />
    </clipPath>
    <clipPath
       clipPathUnits="userSpaceOnUse"
       id="clipPath35">
      <path
         d="m 100.95,7.2 h 432 V 180 h -432 z"
         id="path35" />
    </clipPath>
    <clipPath
       clipPathUnits="userSpaceOnUse"
       id="clipPath37">
      <path
         d="m 100.95,7.2 h 432 V 180 h -432 z"
         id="path37" />
    </clipPath>
  </defs>
  <g
     id="g1">
    <path
       id="path1"
       d="M 0,0 H 584.29062 V 187.2 H 0 Z"
       style="fill:#ffffff;fill-opacity:1;fill-rule:nonzero;stroke:none"
       transform="matrix(1.3333333,0,0,-1.3333333,0,249.6)" />
    <path
       id="path2"
       d="M 46.95,180 585.29062,7.731"
       style="fill:none;stroke:#ffffff;stroke-width:1.5;stroke-linecap:square;stroke-linejoin:round;stroke-miterlimit:10;stroke-dasharray:none;stroke-opacity:1"
       transform="matrix(1.3333333,0,0,-1.3333333,0,249.6)"
       clip-path="url(#clipPath3)" />
    <path
       id="path4"
       d="m 181.95,136.8 h 270"
       style="fill:none;stroke:#000000;stroke-width:2;stroke-linecap:square;stroke-linejoin:round;stroke-miterlimit:10;stroke-dasharray:none;stroke-opacity:1"
       transform="matrix(1.3333333,0,0,-1.3333333,0,249.6)"
       clip-path="url(#clipPath5)" />
    <path
       id="path6"
       d="M 451.95,147.6 V 136.8"
       style="fill:none;stroke:#000000;stroke-width:2;stroke-linecap:square;stroke-linejoin:round;stroke-miterlimit:10;stroke-dasharray:none;stroke-opacity:1"
       transform="matrix(1.3333333,0,0,-1.3333333,0,249.6)"
       clip-path="url(#clipPath7)" />
    <path
       id="path8"
       d="m 418.2,142.2 v -5.4"
       style="fill:none;stroke:#000000;stroke-width:2;stroke-linecap:square;stroke-linejoin:round;stroke-miterlimit:10;stroke-dasharray:none;stroke-opacity:1"
       transform="matrix(1.3333333,0,0,-1.3333333,0,249.6)"
       clip-path="url(#clipPath9)" />
    <path
       id="path10"
       d="M 384.45,147.6 V 136.8"
       style="fill:none;stroke:#000000;stroke-width:2;stroke-linecap:square;stroke-linejoin:round;stroke-miterlimit:10;stroke-dasharray:none;stroke-opacity:1"
       transform="matrix(1.3333333,0,0,-1.3333333,0,249.6)"
       clip-path="url(#clipPath11)" />
    <path
       id="path12"
       d="m 350.7,142.2 v -5.4"
       style="fill:none;stroke:#000000;stroke-width:2;stroke-linecap:square;stroke-linejoin:round;stroke-miterlimit:10;stroke-dasharray:none;stroke-opacity:1"
       transform="matrix(1.3333333,0,0,-1.3333333,0,249.6)"
       clip-path="url(#clipPath13)" />
    <path
       id="path14"
       d="M 316.95,147.6 V 136.8"
       style="fill:none;stroke:#000000;stroke-width:2;stroke-linecap:square;stroke-linejoin:round;stroke-miterlimit:10;stroke-dasharray:none;stroke-opacity:1"
       transform="matrix(1.3333333,0,0,-1.3333333,0,249.6)"
       clip-path="url(#clipPath15)" />
    <path
       id="path16"
       d="m 283.2,142.2 v -5.4"
       style="fill:none;stroke:#000000;stroke-width:2;stroke-linecap:square;stroke-linejoin:round;stroke-miterlimit:10;stroke-dasharray:none;stroke-opacity:1"
       transform="matrix(1.3333333,0,0,-1.3333333,0,249.6)"
       clip-path="url(#clipPath17)" />
    <path
       id="path18"
       d="M 249.45,147.6 V 136.8"
       style="fill:none;stroke:#000000;stroke-width:2;stroke-linecap:square;stroke-linejoin:round;stroke-miterlimit:10;stroke-dasharray:none;stroke-opacity:1"
       transform="matrix(1.3333333,0,0,-1.3333333,0,249.6)"
       clip-path="url(#clipPath19)" />
    <path
       id="path20"
       d="m 215.7,142.2 v -5.4"
       style="fill:none;stroke:#000000;stroke-width:2;stroke-linecap:square;stroke-linejoin:round;stroke-miterlimit:10;stroke-dasharray:none;stroke-opacity:1"
       transform="matrix(1.3333333,0,0,-1.3333333,0,249.6)"
       clip-path="url(#clipPath21)" />
    <path
       id="path22"
       d="M 181.95,147.6 V 136.8"
       style="fill:none;stroke:#000000;stroke-width:2;stroke-linecap:square;stroke-linejoin:round;stroke-miterlimit:10;stroke-dasharray:none;stroke-opacity:1"
       transform="matrix(1.3333333,0,0,-1.3333333,0,249.6)"
       clip-path="url(#clipPath23)" />
    <path
       id="path24"
       d="m 436.94999,136.8 v -72 H 469.95"
       style="fill:none;stroke:#000000;stroke-width:0.75;stroke-linecap:square;stroke-linejoin:round;stroke-miterlimit:10;stroke-dasharray:none;stroke-opacity:1"
       transform="matrix(1.3333333,0,0,-1.3333333,0,249.6)"
       clip-path="url(#clipPath25)" />
    <path
       id="path26"
       d="M 354.45002,136.8 V 47.52 H 469.95"
       style="fill:none;stroke:#000000;stroke-width:0.75;stroke-linecap:square;stroke-linejoin:round;stroke-miterlimit:10;stroke-dasharray:none;stroke-opacity:1"
       transform="matrix(1.3333333,0,0,-1.3333333,0,249.6)"
       clip-path="url(#clipPath27)" />
    <path
       id="path28"
       d="M 316.95,136.8 V 30.24 h 153"
       style="fill:none;stroke:#000000;stroke-width:0.75;stroke-linecap:square;stroke-linejoin:round;stroke-miterlimit:10;stroke-dasharray:none;stroke-opacity:1"
       transform="matrix(1.3333333,0,0,-1.3333333,0,249.6)"
       clip-path="url(#clipPath29)" />
    <path
       id="path30"
       d="M 256.95002,136.8 V 47.52 H 172.95"
       style="fill:none;stroke:#000000;stroke-width:0.75;stroke-linecap:square;stroke-linejoin:round;stroke-miterlimit:10;stroke-dasharray:none;stroke-opacity:1"
       transform="matrix(1.3333333,0,0,-1.3333333,0,249.6)"
       clip-path="url(#clipPath31)" />
    <path
       id="path32"
       d="m 219.44999,136.8 v -72 H 172.95"
       style="fill:none;stroke:#000000;stroke-width:0.75;stroke-linecap:square;stroke-linejoin:round;stroke-miterlimit:10;stroke-dasharray:none;stroke-opacity:1"
       transform="matrix(1.3333333,0,0,-1.3333333,0,249.6)"
       clip-path="url(#clipPath33)" />
    <path
       id="path34"
       d="M 356.25002,122.4 H 315.15"
       style="fill:none;stroke:#000000;stroke-width:2.5;stroke-linecap:square;stroke-linejoin:round;stroke-miterlimit:10;stroke-dasharray:none;stroke-opacity:1"
       transform="matrix(1.3333333,0,0,-1.3333333,0,249.6)"
       clip-path="url(#clipPath35)" />
    <path
       id="path36"
       d="M 258.75002,115.2 H 217.64999"
       style="fill:none;stroke:#000000;stroke-width:2.5;stroke-linecap:square;stroke-linejoin:round;stroke-miterlimit:10;stroke-dasharray:none;stroke-opacity:1"
       transform="matrix(1.3333333,0,0,-1.3333333,0,249.6)"
       clip-path="url(#clipPath37)" />
    <path
       id="path38"
       d=""
       style="fill:#000000;fill-opacity:1;fill-rule:nonzero;stroke:none"
       aria-label="1"
       transform="matrix(1.3333333,0,0,1.3333333,597.93333,44.958333)" />
    <path
       id="path39"
       d=""
       style="fill:#000000;fill-opacity:1;fill-rule:nonzero;stroke:none"
       aria-label="2"
       transform="matrix(1.3333333,0,0,1.3333333,507.93333,44.958333)" />
    <path
       id="path40"
       d=""
       style="fill:#000000;fill-opacity:1;fill-rule:nonzero;stroke:none"
       aria-label="3"
       transform="matrix(1.3333333,0,0,1.3333333,417.93333,44.958333)" />
    <path
       id="path41"
       d=""
       style="fill:#000000;fill-opacity:1;fill-rule:nonzero;stroke:none"
       aria-label="4"
       transform="matrix(1.3333333,0,0,1.3333333,327.93333,44.958333)" />
    <path
       id="path42"
       d=""
       style="fill:#000000;fill-opacity:1;fill-rule:nonzero;stroke:none"
       aria-label="5"
       transform="matrix(1.3333333,0,0,1.3333333,237.93333,44.958333)" />
    <path
       id="path43"
       d=""
       style="fill:#000000;fill-opacity:1;fill-rule:nonzero;stroke:none"
       aria-label="ROCKET"
       transform="matrix(1.3333333,0,0,1.3333333,638.6,169.08542)" />
    <path
       id="path44"
       d=""
       style="fill:#000000;fill-opacity:1;fill-rule:nonzero;stroke:none"
       aria-label="1.2222"
       transform="matrix(1.3333333,0,0,1.3333333,566.6,159.67708)" />
    <path
       id="path45"
       d=""
       style="fill:#000000;fill-opacity:1;fill-rule:nonzero;stroke:none"
       aria-label="MiniROCKET"
       transform="matrix(1.3333333,0,0,1.3333333,638.6,192.12542)" />
    <path
       id="path46"
       d=""
       style="fill:#000000;fill-opacity:1;fill-rule:nonzero;stroke:none"
       aria-label="2.4444"
       transform="matrix(1.3333333,0,0,1.3333333,566.6,182.71708)" />
    <path
       id="path47"
       d=""
       style="fill:#000000;fill-opacity:1;fill-rule:nonzero;stroke:none"
       aria-label="Hydra"
       transform="matrix(1.3333333,0,0,1.3333333,638.6,215.16542)" />
    <path
       id="path48"
       d=""
       style="fill:#000000;fill-opacity:1;fill-rule:nonzero;stroke:none"
       aria-label="3.0000"
       transform="matrix(1.3333333,0,0,1.3333333,566.6,205.75708)" />
    <path
       id="path49"
       d=""
       style="fill:#000000;fill-opacity:1;fill-rule:nonzero;stroke:none"
       aria-label="MultiROCKET-Hydra"
       transform="matrix(1.3333333,0,0,1.3333333,9.6,192.12542)" />
    <path
       id="path50"
       d=""
       style="fill:#000000;fill-opacity:1;fill-rule:nonzero;stroke:none"
       aria-label="3.8889"
       transform="matrix(1.3333333,0,0,1.3333333,243.95417,182.71708)" />
    <path
       id="path51"
       d=""
       style="fill:#000000;fill-opacity:1;fill-rule:nonzero;stroke:none"
       aria-label="MultiROCKET"
       transform="matrix(1.3333333,0,0,1.3333333,79.370833,169.08542)" />
    <path
       id="path52"
       d=""
       style="fill:#000000;fill-opacity:1;fill-rule:nonzero;stroke:none"
       aria-label="4.4444"
       transform="matrix(1.3333333,0,0,1.3333333,243.95417,159.67708)" />
  </g>
</svg>
