<?xml version="1.0" encoding="UTF-8" standalone="no"?>
<!-- Created with Inkscape (http://www.inkscape.org/) -->

<svg
   version="1.1"
   id="svg1"
   width="595.20001"
   height="240"
   viewBox="0 0 595.20001 240"
   xmlns="http://www.w3.org/2000/svg"
   xmlns:svg="http://www.w3.org/2000/svg">
  <defs
     id="defs1">
    <clipPath
       clipPathUnits="userSpaceOnUse"
       id="clipPath3">
      <path
         d="m 7.2,7.2 h 432 V 172.8 H 7.2 Z"
         id="path3" />
    </clipPath>
    <clipPath
       clipPathUnits="userSpaceOnUse"
       id="clipPath5">
      <path
         d="m 7.2,7.2 h 432 V 172.8 H 7.2 Z"
         id="path5" />
    </clipPath>
    <clipPath
       clipPathUnits="userSpaceOnUse"
       id="clipPath7">
      <path
         d="m 7.2,7.2 h 432 V 172.8 H 7.2 Z"
         id="path7" />
    </clipPath>
    <clipPath
       clipPathUnits="userSpaceOnUse"
       id="clipPath9">
      <path
         d="m 7.2,7.2 h 432 V 172.8 H 7.2 Z"
         id="path9" />
    </clipPath>
    <clipPath
       clipPathUnits="userSpaceOnUse"
       id="clipPath11">
      <path
         d="m 7.2,7.2 h 432 V 172.8 H 7.2 Z"
         id="path11" />
    </clipPath>
    <clipPath
       clipPathUnits="userSpaceOnUse"
       id="clipPath13">
      <path
         d="m 7.2,7.2 h 432 V 172.8 H 7.2 Z"
         id="path13" />
    </clipPath>
    <clipPath
       clipPathUnits="userSpaceOnUse"
       id="clipPath15">
      <path
         d="m 7.2,7.2 h 432 V 172.8 H 7.2 Z"
         id="path15" />
    </clipPath>
    <clipPath
       clipPathUnits="userSpaceOnUse"
       id="clipPath17">
      <path
         d="m 7.2,7.2 h 432 V 172.8 H 7.2 Z"
         id="path17" />
    </clipPath>
    <clipPath
       clipPathUnits="userSpaceOnUse"
       id="clipPath19">
      <path
         d="m 7.2,7.2 h 432 V 172.8 H 7.2 Z"
         id="path19" />
    </clipPath>
    <clipPath
       clipPathUnits="userSpaceOnUse"
       id="clipPath21">
      <path
         d="m 7.2,7.2 h 432 V 172.8 H 7.2 Z"
         id="path21" />
    </clipPath>
    <clipPath
       clipPathUnits="userSpaceOnUse"
       id="clipPath23">
      <path
         d="m 7.2,7.2 h 432 V 172.8 H 7.2 Z"
         id="path23" />
    </clipPath>
    <clipPath
       clipPathUnits="userSpaceOnUse"
       id="clipPath25">
      <path
         d="m 7.2,7.2 h 432 V 172.8 H 7.2 Z"
         id="path25" />
    </clipPath>
    <clipPath
       clipPathUnits="userSpaceOnUse"
       id="clipPath27">
      <path
         d="m 7.2,7.2 h 432 V 172.8 H 7.2 Z"
         id="path27" />
    </clipPath>
    <clipPath
       clipPathUnits="userSpaceOnUse"
       id="clipPath29">
      <path
         d="m 7.2,7.2 h 432 V 172.8 H 7.2 Z"
         id="path29" />
    </clipPath>
    <clipPath
       clipPathUnits="userSpaceOnUse"
       id="clipPath31">
      <path
         d="m 7.2,7.2 h 432 V 172.8 H 7.2 Z"
         id="path31" />
    </clipPath>
    <clipPath
       clipPathUnits="userSpaceOnUse"
       id="clipPath33">
      <path
         d="m 7.2,7.2 h 432 V 172.8 H 7.2 Z"
         id="path33" />
    </clipPath>
  </defs>
  <g
     id="g1">
    <path
       id="path1"
       d="M 0,0 H 446.4 V 180 H 0 Z"
       style="fill:#ffffff;fill-opacity:1;fill-rule:nonzero;stroke:none"
       transform="matrix(1.3333333,0,0,-1.3333333,0,240)" />
    <path
       id="path2"
       d="M -1,158.75467 447.4,21.245333"
       style="fill:none;stroke:#ffffff;stroke-width:1.5;stroke-linecap:square;stroke-linejoin:round;stroke-miterlimit:10;stroke-dasharray:none;stroke-opacity:1"
       transform="matrix(1.3333333,0,0,-1.3333333,0,240)"
       clip-path="url(#clipPath3)" />
    <path
       id="path4"
       d="m 88.2,129.6 h 270"
       style="fill:none;stroke:#000000;stroke-width:2;stroke-linecap:square;stroke-linejoin:round;stroke-miterlimit:10;stroke-dasharray:none;stroke-opacity:1"
       transform="matrix(1.3333333,0,0,-1.3333333,0,240)"
       clip-path="url(#clipPath5)" />
    <path
       id="path6"
       d="M 358.2,140.4 V 129.6"
       style="fill:none;stroke:#000000;stroke-width:2;stroke-linecap:square;stroke-linejoin:round;stroke-miterlimit:10;stroke-dasharray:none;stroke-opacity:1"
       transform="matrix(1.3333333,0,0,-1.3333333,0,240)"
       clip-path="url(#clipPath7)" />
    <path
       id="path8"
       d="m 313.2,135 v -5.4"
       style="fill:none;stroke:#000000;stroke-width:2;stroke-linecap:square;stroke-linejoin:round;stroke-miterlimit:10;stroke-dasharray:none;stroke-opacity:1"
       transform="matrix(1.3333333,0,0,-1.3333333,0,240)"
       clip-path="url(#clipPath9)" />
    <path
       id="path10"
       d="M 268.2,140.4 V 129.6"
       style="fill:none;stroke:#000000;stroke-width:2;stroke-linecap:square;stroke-linejoin:round;stroke-miterlimit:10;stroke-dasharray:none;stroke-opacity:1"
       transform="matrix(1.3333333,0,0,-1.3333333,0,240)"
       clip-path="url(#clipPath11)" />
    <path
       id="path12"
       d="m 223.2,135 v -5.4"
       style="fill:none;stroke:#000000;stroke-width:2;stroke-linecap:square;stroke-linejoin:round;stroke-miterlimit:10;stroke-dasharray:none;stroke-opacity:1"
       transform="matrix(1.3333333,0,0,-1.3333333,0,240)"
       clip-path="url(#clipPath13)" />
    <path
       id="path14"
       d="M 178.2,140.4 V 129.6"
       style="fill:none;stroke:#000000;stroke-width:2;stroke-linecap:square;stroke-linejoin:round;stroke-miterlimit:10;stroke-dasharray:none;stroke-opacity:1"
       transform="matrix(1.3333333,0,0,-1.3333333,0,240)"
       clip-path="url(#clipPath15)" />
    <path
       id="path16"
       d="m 133.2,135 v -5.4"
       style="fill:none;stroke:#000000;stroke-width:2;stroke-linecap:square;stroke-linejoin:round;stroke-miterlimit:10;stroke-dasharray:none;stroke-opacity:1"
       transform="matrix(1.3333333,0,0,-1.3333333,0,240)"
       clip-path="url(#clipPath17)" />
    <path
       id="path18"
       d="M 88.2,140.4 V 129.6"
       style="fill:none;stroke:#000000;stroke-width:2;stroke-linecap:square;stroke-linejoin:round;stroke-miterlimit:10;stroke-dasharray:none;stroke-opacity:1"
       transform="matrix(1.3333333,0,0,-1.3333333,0,240)"
       clip-path="url(#clipPath19)" />
    <path
       id="path20"
       d="m 322.2,129.6 v -72 h 54"
       style="fill:none;stroke:#000000;stroke-width:0.75;stroke-linecap:square;stroke-linejoin:round;stroke-miterlimit:10;stroke-dasharray:none;stroke-opacity:1"
       transform="matrix(1.3333333,0,0,-1.3333333,0,240)"
       clip-path="url(#clipPath21)" />
    <path
       id="path22"
       d="M 286.2,129.6 V 40.32 h 90"
       style="fill:none;stroke:#000000;stroke-width:0.75;stroke-linecap:square;stroke-linejoin:round;stroke-miterlimit:10;stroke-dasharray:none;stroke-opacity:1"
       transform="matrix(1.3333333,0,0,-1.3333333,0,240)"
       clip-path="url(#clipPath23)" />
    <path
       id="path24"
       d="M 178.20001,129.6 V 40.32 H 79.2"
       style="fill:none;stroke:#000000;stroke-width:0.75;stroke-linecap:square;stroke-linejoin:round;stroke-miterlimit:10;stroke-dasharray:none;stroke-opacity:1"
       transform="matrix(1.3333333,0,0,-1.3333333,0,240)"
       clip-path="url(#clipPath25)" />
    <path
       id="path26"
       d="m 106.20002,129.6 v -72 H 79.2"
       style="fill:none;stroke:#000000;stroke-width:0.75;stroke-linecap:square;stroke-linejoin:round;stroke-miterlimit:10;stroke-dasharray:none;stroke-opacity:1"
       transform="matrix(1.3333333,0,0,-1.3333333,0,240)"
       clip-path="url(#clipPath27)" />
    <path
       id="path28"
       d="M 324,115.2 H 284.40001"
       style="fill:none;stroke:#000000;stroke-width:2.5;stroke-linecap:square;stroke-linejoin:round;stroke-miterlimit:10;stroke-dasharray:none;stroke-opacity:1"
       transform="matrix(1.3333333,0,0,-1.3333333,0,240)"
       clip-path="url(#clipPath29)" />
    <path
       id="path30"
       d="M 288,108 H 176.40001"
       style="fill:none;stroke:#000000;stroke-width:2.5;stroke-linecap:square;stroke-linejoin:round;stroke-miterlimit:10;stroke-dasharray:none;stroke-opacity:1"
       transform="matrix(1.3333333,0,0,-1.3333333,0,240)"
       clip-path="url(#clipPath31)" />
    <path
       id="path32"
       d="M 180.00001,100.8 H 104.40002"
       style="fill:none;stroke:#000000;stroke-width:2.5;stroke-linecap:square;stroke-linejoin:round;stroke-miterlimit:10;stroke-dasharray:none;stroke-opacity:1"
       transform="matrix(1.3333333,0,0,-1.3333333,0,240)"
       clip-path="url(#clipPath33)" />
    <path
       id="path34"
       d=""
       style="fill:#000000;fill-opacity:1;fill-rule:nonzero;stroke:none"
       aria-label="1"
       transform="matrix(1.3333333,0,0,1.3333333,472.93333,44.958333)" />
    <path
       id="path35"
       d=""
       style="fill:#000000;fill-opacity:1;fill-rule:nonzero;stroke:none"
       aria-label="2"
       transform="matrix(1.3333333,0,0,1.3333333,352.93333,44.958333)" />
    <path
       id="path36"
       d=""
       style="fill:#000000;fill-opacity:1;fill-rule:nonzero;stroke:none"
       aria-label="3"
       transform="matrix(1.3333333,0,0,1.3333333,232.93333,44.958333)" />
    <path
       id="path37"
       d=""
       style="fill:#000000;fill-opacity:1;fill-rule:nonzero;stroke:none"
       aria-label="4"
       transform="matrix(1.3333333,0,0,1.3333333,112.93333,44.958333)" />
    <path
       id="path38"
       d=""
       style="fill:#000000;fill-opacity:1;fill-rule:nonzero;stroke:none"
       aria-label="cfg 3"
       transform="matrix(1.3333333,0,0,1.3333333,513.6,169.08542)" />
    <path
       id="path39"
       d=""
       style="fill:#000000;fill-opacity:1;fill-rule:nonzero;stroke:none"
       aria-label="1.4000"
       transform="matrix(1.3333333,0,0,1.3333333,441.6,159.67708)" />
    <path
       id="path40"
       d=""
       style="fill:#000000;fill-opacity:1;fill-rule:nonzero;stroke:none"
       aria-label="cfg 2"
       transform="matrix(1.3333333,0,0,1.3333333,513.6,192.12542)" />
    <path
       id="path41"
       d=""
       style="fill:#000000;fill-opacity:1;fill-rule:nonzero;stroke:none"
       aria-label="1.8000"
       transform="matrix(1.3333333,0,0,1.3333333,441.6,182.71708)" />
    <path
       id="path42"
       d=""
       style="fill:#000000;fill-opacity:1;fill-rule:nonzero;stroke:none"
       aria-label="cfg 4"
       transform="matrix(1.3333333,0,0,1.3333333,40.433333,192.12542)" />
    <path
       id="path43"
       d=""
       style="fill:#000000;fill-opacity:1;fill-rule:nonzero;stroke:none"
       aria-label="3.0000"
       transform="matrix(1.3333333,0,0,1.3333333,118.95417,182.71708)" />
    <path
       id="path44"
       d=""
       style="fill:#000000;fill-opacity:1;fill-rule:nonzero;stroke:none"
       aria-label="cfg 1"
       transform="matrix(1.3333333,0,0,1.3333333,40.433333,169.08542)" />
    <path
       id="path45"
       d=""
       style="fill:#000000;fill-opacity:1;fill-rule:nonzero;stroke:none"
       aria-label="3.8000"
       transform="matrix(1.3333333,0,0,1.3333333,118.95417,159.67708)" />
  </g>
</svg>
