<?xml version="1.0" encoding="UTF-8" standalone="no"?>
<!-- Created with Inkscape (http://www.inkscape.org/) -->

<svg
   version="1.1"
   id="svg1"
   width="792.26398"
   height="550.87067"
   viewBox="0 0 792.26398 550.87067"
   xmlns="http://www.w3.org/2000/svg"
   xmlns:svg="http://www.w3.org/2000/svg">
  <defs
     id="defs1">
    <clipPath
       clipPathUnits="userSpaceOnUse"
       id="clipPath3">
      <path
         d="M 0,1.2207e-4 H 960 V 540.00012 H 0 Z"
         clip-rule="evenodd"
         id="path3" />
    </clipPath>
    <clipPath
       clipPathUnits="userSpaceOnUse"
       id="clipPath10">
      <path
         d="M 1.4305e-5,0 H 960.00001 V 540 H 1.4305e-5 Z"
         transform="matrix(1,0,0,-1,-226.18001,427.23001)"
         clip-rule="evenodd"
         id="path10" />
    </clipPath>
    <clipPath
       clipPathUnits="userSpaceOnUse"
       id="clipPath11">
      <path
         d="M 1.4305e-5,0 H 960.00001 V 540 H 1.4305e-5 Z"
         transform="matrix(1,0,0,-1,-216.65001,411.45001)"
         clip-rule="evenodd"
         id="path11" />
    </clipPath>
    <clipPath
       clipPathUnits="userSpaceOnUse"
       id="clipPath12">
      <path
         d="M 1.4305e-5,0 H 960.00001 V 540 H 1.4305e-5 Z"
         transform="matrix(1,0,0,-1,-276.7,411.45001)"
         clip-rule="evenodd"
         id="path12" />
    </clipPath>
    <clipPath
       clipPathUnits="userSpaceOnUse"
       id="clipPath13">
      <path
         d="M 1.4305e-5,0 H 960.00001 V 540 H 1.4305e-5 Z"
         transform="matrix(1,0,0,-1,-214.58001,396.42001)"
         clip-rule="evenodd"
         id="path13" />
    </clipPath>
    <clipPath
       clipPathUnits="userSpaceOnUse"
       id="clipPath15">
      <path
         d="M 1.4305e-5,0 H 960.00001 V 540 H 1.4305e-5 Z"
         transform="matrix(1,0,0,-1,-375.58001,424.52001)"
         clip-rule="evenodd"
         id="path15" />
    </clipPath>
    <clipPath
       clipPathUnits="userSpaceOnUse"
       id="clipPath16">
      <path
         d="M 1.4305e-5,0 H 960.00001 V 540 H 1.4305e-5 Z"
         transform="matrix(1,0,0,-1,-460.02001,424.52001)"
         clip-rule="evenodd"
         id="path16" />
    </clipPath>
    <clipPath
       clipPathUnits="userSpaceOnUse"
       id="clipPath17">
      <path
         d="M 1.4305e-5,0 H 960.00001 V 540 H 1.4305e-5 Z"
         transform="matrix(1,0,0,-1,-387.90001,408.77001)"
         clip-rule="evenodd"
         id="path17" />
    </clipPath>
    <clipPath
       clipPathUnits="userSpaceOnUse"
       id="clipPath19">
      <path
         d="M 1.4305e-5,0 H 960.00001 V 540 H 1.4305e-5 Z"
         transform="matrix(1,0,0,-1,-251.67001,341.00001)"
         clip-rule="evenodd"
         id="path19" />
    </clipPath>
    <clipPath
       clipPathUnits="userSpaceOnUse"
       id="clipPath20">
      <path
         d="M 1.4305e-5,0 H 960.00001 V 540 H 1.4305e-5 Z"
         transform="matrix(1,0,0,-1,-246.25001,325.22001)"
         clip-rule="evenodd"
         id="path20" />
    </clipPath>
    <clipPath
       clipPathUnits="userSpaceOnUse"
       id="clipPath22">
      <path
         d="M 1.4305e-5,0 H 960.00001 V 540 H 1.4305e-5 Z"
         transform="matrix(1,0,0,-1,-541.15001,439.60001)"
         clip-rule="evenodd"
         id="path22" />
    </clipPath>
    <clipPath
       clipPathUnits="userSpaceOnUse"
       id="clipPath23">
      <path
         d="M 1.4305e-5,0 H 960.00001 V 540 H 1.4305e-5 Z"
         transform="matrix(1,0,0,-1,-598.38001,423.83001)"
         clip-rule="evenodd"
         id="path23" />
    </clipPath>
    <clipPath
       clipPathUnits="userSpaceOnUse"
       id="clipPath24">
      <path
         d="M 1.4305e-5,0 H 960.00001 V 540 H 1.4305e-5 Z"
         transform="matrix(1,0,0,-1,-555.03001,408.80001)"
         clip-rule="evenodd"
         id="path24" />
    </clipPath>
    <clipPath
       clipPathUnits="userSpaceOnUse"
       id="clipPath25">
      <path
         d="M 1.4305e-5,0 H 960.00001 V 540 H 1.4305e-5 Z"
         transform="matrix(1,0,0,-1,-582.05002,408.80001)"
         clip-rule="evenodd"
         id="path25" />
    </clipPath>
    <clipPath
       clipPathUnits="userSpaceOnUse"
       id="clipPath26">
      <path
         d="M 1.4305e-5,0 H 960.00001 V 540 H 1.4305e-5 Z"
         transform="matrix(1,0,0,-1,-601.55002,408.80001)"
         clip-rule="evenodd"
         id="path26" />
    </clipPath>
    <clipPath
       clipPathUnits="userSpaceOnUse"
       id="clipPath27">
      <path
         d="M 1.4305e-5,0 H 960.00001 V 540 H 1.4305e-5 Z"
         transform="matrix(1,0,0,-1,-605.95001,408.80001)"
         clip-rule="evenodd"
         id="path27" />
    </clipPath>
    <clipPath
       clipPathUnits="userSpaceOnUse"
       id="clipPath28">
      <path
         d="M 1.4305e-5,0 H 960.00001 V 540 H 1.4305e-5 Z"
         transform="matrix(1,0,0,-1,-556.03001,393.03001)"
         clip-rule="evenodd"
         id="path28" />
    </clipPath>
    <clipPath
       clipPathUnits="userSpaceOnUse"
       id="clipPath29">
      <path
         d="M 1.4305e-5,0 H 960.00001 V 540 H 1.4305e-5 Z"
         transform="matrix(1,0,0,-1,-583.05001,393.03001)"
         clip-rule="evenodd"
         id="path29" />
    </clipPath>
    <clipPath
       clipPathUnits="userSpaceOnUse"
       id="clipPath30">
      <path
         d="M 1.4305e-5,0 H 960.00001 V 540 H 1.4305e-5 Z"
         transform="matrix(1,0,0,-1,-586.30001,393.03001)"
         clip-rule="evenodd"
         id="path30" />
    </clipPath>
    <clipPath
       clipPathUnits="userSpaceOnUse"
       id="clipPath32">
      <path
         d="M 1.4305e-5,0 H 960.00001 V 540 H 1.4305e-5 Z"
         transform="matrix(1,0,0,-1,-582.68002,341.28001)"
         clip-rule="evenodd"
         id="path32" />
    </clipPath>
    <clipPath
       clipPathUnits="userSpaceOnUse"
       id="clipPath33">
      <path
         d="M 1.4305e-5,0 H 960.00001 V 540 H 1.4305e-5 Z"
         transform="matrix(1,0,0,-1,-579.97001,325.50001)"
         clip-rule="evenodd"
         id="path33" />
    </clipPath>
    <clipPath
       clipPathUnits="userSpaceOnUse"
       id="clipPath34">
      <path
         d="M 1.4305e-5,0 H 960.00001 V 540 H 1.4305e-5 Z"
         transform="matrix(1,0,0,-1,-596.60002,325.50001)"
         clip-rule="evenodd"
         id="path34" />
    </clipPath>
    <clipPath
       clipPathUnits="userSpaceOnUse"
       id="clipPath35">
      <path
         d="M 1.4305e-5,0 H 960.00001 V 540 H 1.4305e-5 Z"
         transform="matrix(1,0,0,-1,-600.98002,325.50001)"
         clip-rule="evenodd"
         id="path35" />
    </clipPath>
    <clipPath
       clipPathUnits="userSpaceOnUse"
       id="clipPath37">
      <path
         d="M 1.4305e-5,0 H 960.00001 V 540 H 1.4305e-5 Z"
         transform="matrix(1,0,0,-1,-261.27001,250.77)"
         clip-rule="evenodd"
         id="path37" />
    </clipPath>
    <clipPath
       clipPathUnits="userSpaceOnUse"
       id="clipPath38">
      <path
         d="M 1.4305e-5,0 H 960.00001 V 540 H 1.4305e-5 Z"
         transform="matrix(1,0,0,-1,-267.38001,235.00001)"
         clip-rule="evenodd"
         id="path38" />
    </clipPath>
    <clipPath
       clipPathUnits="userSpaceOnUse"
       id="clipPath40">
      <path
         d="M 1.4305e-5,0 H 960.00001 V 540 H 1.4305e-5 Z"
         transform="matrix(1,0,0,-1,-619.35002,250.53)"
         clip-rule="evenodd"
         id="path40" />
    </clipPath>
    <clipPath
       clipPathUnits="userSpaceOnUse"
       id="clipPath41">
      <path
         d="M 1.4305e-5,0 H 960.00001 V 540 H 1.4305e-5 Z"
         transform="matrix(1,0,0,-1,-639.13001,234.78)"
         clip-rule="evenodd"
         id="path41" />
    </clipPath>
    <clipPath
       clipPathUnits="userSpaceOnUse"
       id="clipPath43">
      <path
         d="M 1.4305e-5,0 H 960.00001 V 540 H 1.4305e-5 Z"
         transform="matrix(1,0,0,-1,-637.15001,144.15)"
         clip-rule="evenodd"
         id="path43" />
    </clipPath>
    <clipPath
       clipPathUnits="userSpaceOnUse"
       id="clipPath44">
      <path
         d="M 1.4305e-5,0 H 960.00001 V 540 H 1.4305e-5 Z"
         transform="matrix(1,0,0,-1,-628.72001,128.4)"
         clip-rule="evenodd"
         id="path44" />
    </clipPath>
    <clipPath
       clipPathUnits="userSpaceOnUse"
       id="clipPath50">
      <path
         d="M 1.4305e-5,0 H 960.00001 V 540 H 1.4305e-5 Z"
         transform="matrix(1,0,0,-1,-437.05001,166.90001)"
         clip-rule="evenodd"
         id="path50" />
    </clipPath>
    <clipPath
       clipPathUnits="userSpaceOnUse"
       id="clipPath51">
      <path
         d="M 1.4305e-5,0 H 960.00001 V 540 H 1.4305e-5 Z"
         transform="matrix(1,0,0,-1,-435.55001,151.13)"
         clip-rule="evenodd"
         id="path51" />
    </clipPath>
    <clipPath
       clipPathUnits="userSpaceOnUse"
       id="clipPath52">
      <path
         d="M 1.4305e-5,0 H 960.00001 V 540 H 1.4305e-5 Z"
         transform="matrix(1,0,0,-1,-418.82001,136.13)"
         clip-rule="evenodd"
         id="path52" />
    </clipPath>
    <clipPath
       clipPathUnits="userSpaceOnUse"
       id="clipPath53">
      <path
         d="M 1.4305e-5,0 H 960.00001 V 540 H 1.4305e-5 Z"
         transform="matrix(1,0,0,-1,-432.27001,120.35)"
         clip-rule="evenodd"
         id="path53" />
    </clipPath>
    <clipPath
       clipPathUnits="userSpaceOnUse"
       id="clipPath54">
      <path
         d="M 1.4305e-5,0 H 960.00001 V 540 H 1.4305e-5 Z"
         transform="matrix(1,0,0,-1,-421.40001,104.58)"
         clip-rule="evenodd"
         id="path54" />
    </clipPath>
    <clipPath
       clipPathUnits="userSpaceOnUse"
       id="clipPath56">
      <path
         d="M 1.4305e-5,0 H 960.00001 V 540 H 1.4305e-5 Z"
         transform="matrix(1,0,0,-1,-235.70001,135.73001)"
         clip-rule="evenodd"
         id="path56" />
    </clipPath>
    <clipPath
       clipPathUnits="userSpaceOnUse"
       id="clipPath59">
      <path
         d="M 1.4305e-5,0 H 960.00001 V 540 H 1.4305e-5 Z"
         transform="matrix(1,0,0,-1,-329.55001,161.07)"
         clip-rule="evenodd"
         id="path59" />
    </clipPath>
    <clipPath
       clipPathUnits="userSpaceOnUse"
       id="clipPath60">
      <path
         d="M 1.4305e-5,0 H 960.00001 V 540 H 1.4305e-5 Z"
         transform="matrix(1,0,0,-1,-336.05001,161.07)"
         clip-rule="evenodd"
         id="path60" />
    </clipPath>
    <clipPath
       clipPathUnits="userSpaceOnUse"
       id="clipPath61">
      <path
         d="M 1.4305e-5,0 H 960.00001 V 540 H 1.4305e-5 Z"
         transform="matrix(1,0,0,-1,-340.43001,161.07)"
         clip-rule="evenodd"
         id="path61" />
    </clipPath>
    <clipPath
       clipPathUnits="userSpaceOnUse"
       id="clipPath62">
      <path
         d="M 1.4305e-5,0 H 960.00001 V 540 H 1.4305e-5 Z"
         transform="matrix(1,0,0,-1,-391.35001,161.07)"
         clip-rule="evenodd"
         id="path62" />
    </clipPath>
    <clipPath
       clipPathUnits="userSpaceOnUse"
       id="clipPath63">
      <path
         d="M 1.4305e-5,0 H 960.00001 V 540 H 1.4305e-5 Z"
         transform="matrix(1,0,0,-1,-329.55001,145.30001)"
         clip-rule="evenodd"
         id="path63" />
    </clipPath>
    <clipPath
       clipPathUnits="userSpaceOnUse"
       id="clipPath65">
      <path
         d="M 1.4305e-5,0 H 960.00001 V 540 H 1.4305e-5 Z"
         transform="matrix(1,0,0,-1,-413.35001,209.48001)"
         clip-rule="evenodd"
         id="path65" />
    </clipPath>
    <clipPath
       clipPathUnits="userSpaceOnUse"
       id="clipPath66">
      <path
         d="M 1.4305e-5,0 H 960.00001 V 540 H 1.4305e-5 Z"
         transform="matrix(1,0,0,-1,-450.13001,209.48001)"
         clip-rule="evenodd"
         id="path66" />
    </clipPath>
    <clipPath
       clipPathUnits="userSpaceOnUse"
       id="clipPath67">
      <path
         d="M 1.4305e-5,0 H 960.00001 V 540 H 1.4305e-5 Z"
         transform="matrix(1,0,0,-1,-454.50001,209.48001)"
         clip-rule="evenodd"
         id="path67" />
    </clipPath>
    <clipPath
       clipPathUnits="userSpaceOnUse"
       id="clipPath69">
      <path
         d="M 1.4305e-5,0 H 960.00001 V 540 H 1.4305e-5 Z"
         transform="matrix(1,0,0,-1,-441.75001,291.65001)"
         clip-rule="evenodd"
         id="path69" />
    </clipPath>
    <clipPath
       clipPathUnits="userSpaceOnUse"
       id="clipPath71">
      <path
         d="M 1.4305e-5,0 H 960.00001 V 540 H 1.4305e-5 Z"
         transform="matrix(1,0,0,-1,-421.30001,477.40001)"
         clip-rule="evenodd"
         id="path71" />
    </clipPath>
  </defs>
  <g
     id="g1">
    <g
       id="g2">
      <path
         id="path2"
         d="M 0,6.1035e-5 H 960 V 540.00006 H 0 Z"
         style="fill:#ffffff;fill-opacity:1;fill-rule:evenodd;stroke:none"
         transform="matrix(1.3333333,0,0,-1.3333333,-241.392,651.91467)"
         clip-path="url(#clipPath3)" />
    </g>
    <g
       id="g3">
      <path
         id="path4"
         d="m 193.13,443.37 c 0,14.64 11.86,26.5 26.5,26.5 h 498.24 c 14.64,0 26.51,-11.86 26.51,-26.5 V 337.38 c 0,-14.64 -11.87,-26.51 -26.51,-26.51 H 219.63 c -14.64,0 -26.5,11.87 -26.5,26.51 z"
         style="fill:#ffffff;fill-opacity:1;fill-rule:evenodd;stroke:#000000;stroke-width:1;stroke-linecap:butt;stroke-linejoin:miter;stroke-miterlimit:10;stroke-dasharray:none;stroke-opacity:1"
         transform="matrix(1.3333333,0,0,-1.3333333,-241.392,651.91467)" />
    </g>
    <g
       id="g4">
      <path
         id="path5"
         d="m 186.38,252.12 c 0,18.78 15.22,34 34,34 h 516.99 c 18.78,0 34.01,-15.22 34.01,-34 V 116.13 c 0,-18.782 -15.23,-34.005 -34.01,-34.005 H 220.38 c -18.78,0 -34,15.223 -34,34.005 z"
         style="fill:#ffffff;fill-opacity:1;fill-rule:evenodd;stroke:#000000;stroke-width:1;stroke-linecap:butt;stroke-linejoin:miter;stroke-miterlimit:10;stroke-dasharray:none;stroke-opacity:1"
         transform="matrix(1.3333333,0,0,-1.3333333,-241.392,651.91467)" />
    </g>
    <g
       id="g5">
      <path
         id="path6"
         d="m 201.38,186.75 c 0,10.15 8.22,18.37 18.37,18.37 H 730.5 c 10.15,0 18.38,-8.22 18.38,-18.37 v -73.5 c 0,-10.15 -8.23,-18.375 -18.38,-18.375 H 219.75 c -10.15,0 -18.37,8.225 -18.37,18.375 z"
         style="fill:#ffffff;fill-opacity:1;fill-rule:evenodd;stroke:#000000;stroke-width:1;stroke-linecap:butt;stroke-linejoin:miter;stroke-miterlimit:10;stroke-dasharray:none;stroke-opacity:1"
         transform="matrix(1.3333333,0,0,-1.3333333,-241.392,651.91467)" />
    </g>
    <g
       id="g6">
      <path
         id="path7"
         d="m 205.88,452.16 c 0,-5.65 19.3,-10.22 43.12,-10.22 23.82,0 43.13,4.57 43.13,10.22 v -61.32 c 0,-5.64 -19.31,-10.22 -43.13,-10.22 -23.82,0 -43.12,4.58 -43.12,10.22 z"
         style="fill:#ffffff;fill-opacity:1;fill-rule:evenodd;stroke:none"
         transform="matrix(1.3333333,0,0,-1.3333333,-241.392,651.91467)" />
      <path
         id="path8"
         d="m 205.88,452.16 c 0,5.64 19.3,10.21 43.12,10.21 23.82,0 43.13,-4.57 43.13,-10.21 0,-5.65 -19.31,-10.22 -43.13,-10.22 -23.82,0 -43.12,4.57 -43.12,10.22 z"
         style="fill:#ffffff;fill-opacity:1;fill-rule:evenodd;stroke:none"
         transform="matrix(1.3333333,0,0,-1.3333333,-241.392,651.91467)" />
      <path
         id="path9"
         d="m 292.13,452.16 c 0,-5.65 -19.31,-10.22 -43.13,-10.22 -23.82,0 -43.12,4.57 -43.12,10.22 0,5.64 19.3,10.21 43.12,10.21 23.82,0 43.13,-4.57 43.13,-10.21 v -61.32 c 0,-5.64 -19.31,-10.22 -43.13,-10.22 -23.82,0 -43.12,4.58 -43.12,10.22 v 61.32"
         style="fill:none;stroke:#000000;stroke-width:1;stroke-linecap:butt;stroke-linejoin:miter;stroke-miterlimit:10;stroke-dasharray:none;stroke-opacity:1"
         transform="matrix(1.3333333,0,0,-1.3333333,-241.392,651.91467)" />
    </g>
    <g
       id="g9">
      <text
         id="text9"
         xml:space="preserve"
         transform="matrix(1.3333333,0,0,1.3333333,60.181333,82.274667)"
         clip-path="url(#clipPath10)"><tspan
           id="tspan9"
           style="font-variant:normal;font-weight:normal;font-size:12.775px;font-family:'Times New Roman';writing-mode:lr-tb;fill:#000000;fill-opacity:1;fill-rule:nonzero;stroke:none"
           x="0"
           dx="0 0.54932499 -0.54932499 0.472675 0.34492499 -0.42157501 0.26827499"
           y="0">miRbase</tspan></text>
    </g>
    <g
       id="g10">
      <text
         id="text10"
         xml:space="preserve"
         transform="matrix(1.3333333,0,0,1.3333333,47.474667,103.31467)"
         clip-path="url(#clipPath11)"><tspan
           id="tspan10"
           style="font-variant:normal;font-weight:normal;font-size:12.775px;font-family:'Times New Roman';writing-mode:lr-tb;fill:#000000;fill-opacity:1;fill-rule:nonzero;stroke:none"
           x="0"
           dx="0 0.25549999 0.37047499 -0.35769999 0.56209999 -0.35769999 0.37047499 0.37047499 -0.16607501 0.37047499 -0.48545"
           y="0">(38,589 pre</tspan></text>
      <text
         id="text11"
         xml:space="preserve"
         transform="matrix(1.3333333,0,0,1.3333333,127.54133,103.31467)"
         clip-path="url(#clipPath12)"><tspan
           id="tspan11"
           style="font-variant:normal;font-weight:normal;font-size:12.775px;font-family:'Times New Roman';writing-mode:lr-tb;fill:#000000;fill-opacity:1;fill-rule:nonzero;stroke:none"
           x="0"
           y="0">-</tspan></text>
      <text
         id="text12"
         xml:space="preserve"
         transform="matrix(1.3333333,0,0,1.3333333,44.714667,123.35467)"
         clip-path="url(#clipPath13)"><tspan
           id="tspan12"
           style="font-variant:normal;font-weight:normal;font-size:12.775px;font-family:'Times New Roman';writing-mode:lr-tb;fill:#000000;fill-opacity:1;fill-rule:nonzero;stroke:none"
           x="0"
           dx="0 0.574875 -0.54932499 0.472675 -0.21717501 -0.21717501 -0.191625 0.26827499 0.31937501 -0.38325 0.54932499 -0.498225"
           y="0">miRNA seq.) </tspan></text>
    </g>
    <g
       id="g13">
      <path
         id="path14"
         d="m 349.13,398.62 11.43,45.75 h 130.32 l -11.44,-45.75 z"
         style="fill:#ffffff;fill-opacity:1;fill-rule:evenodd;stroke:#000000;stroke-width:1;stroke-linecap:butt;stroke-linejoin:miter;stroke-miterlimit:10;stroke-dasharray:none;stroke-opacity:1"
         transform="matrix(1.3333333,0,0,-1.3333333,-241.392,651.91467)" />
    </g>
    <g
       id="g14">
      <text
         id="text14"
         xml:space="preserve"
         transform="matrix(1.3333333,0,0,1.3333333,259.38133,85.888)"
         clip-path="url(#clipPath15)"><tspan
           id="tspan14"
           style="font-variant:normal;font-weight:normal;font-size:12.75px;font-family:'Times New Roman';writing-mode:lr-tb;fill:#000000;fill-opacity:1;fill-rule:nonzero;stroke:none"
           x="0"
           dx="0 0.38249999 -0.34424999 0.38249999 -0.16575 0.30599999 0.35699999 0.21675 -0.38249999 0.35699999 0.21675 -0.38249999 0.38249999 -0.16575 0.38249999 0.26774999"
           y="0">827 selected pre</tspan></text>
      <text
         id="text15"
         xml:space="preserve"
         transform="matrix(1.3333333,0,0,1.3333333,371.968,85.888)"
         clip-path="url(#clipPath16)"><tspan
           id="tspan15"
           style="font-variant:normal;font-weight:normal;font-size:12.75px;font-family:'Times New Roman';writing-mode:lr-tb;fill:#000000;fill-opacity:1;fill-rule:nonzero;stroke:none"
           x="0"
           y="0">-</tspan></text>
      <text
         id="text16"
         xml:space="preserve"
         transform="matrix(1.3333333,0,0,1.3333333,275.808,106.888)"
         clip-path="url(#clipPath17)"><tspan
           id="tspan16"
           style="font-variant:normal;font-weight:normal;font-size:12.775px;font-family:'Times New Roman';writing-mode:lr-tb;fill:#000000;fill-opacity:1;fill-rule:nonzero;stroke:none"
           x="0"
           dx="0 0.54932499 -0.54932499 0.472675 -0.21717501 -0.21717501 -0.191625 0.26827499 0.31937501 -0.38325"
           y="0">miRNA seq.</tspan></text>
    </g>
    <g
       id="g17">
      <path
         id="path18"
         d="m 216.38,315.37 11.25,45 h 138.75 l -11.25,-45 z"
         style="fill:#ffffff;fill-opacity:1;fill-rule:evenodd;stroke:#000000;stroke-width:1;stroke-linecap:butt;stroke-linejoin:miter;stroke-miterlimit:10;stroke-dasharray:none;stroke-opacity:1"
         transform="matrix(1.3333333,0,0,-1.3333333,-241.392,651.91467)" />
    </g>
    <g
       id="g18">
      <text
         id="text18"
         xml:space="preserve"
         transform="matrix(1.3333333,0,0,1.3333333,94.168,197.248)"
         clip-path="url(#clipPath19)"><tspan
           id="tspan18"
           style="font-variant:normal;font-weight:normal;font-size:12.775px;font-family:'Times New Roman';writing-mode:lr-tb;fill:#000000;fill-opacity:1;fill-rule:nonzero;stroke:none"
           x="0"
           dx="0 0.34492499 -0.38325 0.34492499 -0.191625 0.34492499 -0.191625 0.34492499 -0.191625 0.3066 0.54932499 -0.38325 0.34492499 0.34492499 -0.38325"
           y="0">827 x 4 = 3308 </tspan></text>
      <text
         id="text19"
         xml:space="preserve"
         transform="matrix(1.3333333,0,0,1.3333333,86.941333,218.288)"
         clip-path="url(#clipPath20)"><tspan
           id="tspan19"
           style="font-variant:normal;font-weight:normal;font-size:12.775px;font-family:'Times New Roman';writing-mode:lr-tb;fill:#000000;fill-opacity:1;fill-rule:nonzero;stroke:none"
           x="0"
           dx="0 0.31937501 0.191625 -0.42157501 0.31937501 0.34492499 -0.42157501 0.34492499 0.31937501 -0.191625 0.34492499 -0.42157501 0.191625 0.191625 0.31937501 -0.498225 0.34492499"
           y="0">cleavage patterns</tspan></text>
    </g>
    <g
       id="g20">
      <path
         id="path21"
         d="m 517.88,383.62 h 209.25 v 74.25 H 517.88 Z"
         style="fill:#ffffff;fill-opacity:1;fill-rule:evenodd;stroke:#000000;stroke-width:1;stroke-linecap:butt;stroke-linejoin:miter;stroke-miterlimit:10;stroke-dasharray:none;stroke-opacity:1"
         transform="matrix(1.3333333,0,0,-1.3333333,-241.392,651.91467)" />
    </g>
    <g
       id="g21">
      <text
         id="text21"
         xml:space="preserve"
         transform="matrix(1.3333333,0,0,1.3333333,480.14133,65.781333)"
         clip-path="url(#clipPath22)"><tspan
           id="tspan21"
           style="font-variant:normal;font-weight:normal;font-size:12.775px;font-family:'Times New Roman';writing-mode:lr-tb;fill:#000000;fill-opacity:1;fill-rule:nonzero;stroke:none"
           x="0"
           dx="0 0.51099998 -0.42157501 0.34492499 0.34492499 -0.54932499 0.22995 0.31937501 -0.191625 0.26827499 0.31937501 -0.42157501 0.34492499 0.34492499 -0.38325 0.31937501 0.22995 -0.38325 0.54932499 -0.472675 0.191625 0.22995 0.34492499 -0.42157501 0.191625 0.34492499 0.22995 -0.42157501 0.54932499 -0.38325 0.34492499"
           y="0">Acquire secondary structure by </tspan></text>
      <text
         id="text22"
         xml:space="preserve"
         transform="matrix(1.3333333,0,0,1.3333333,556.448,86.808)"
         clip-path="url(#clipPath23)"><tspan
           id="tspan22"
           style="font-variant:normal;font-weight:normal;font-size:12.775px;font-family:'Times New Roman';writing-mode:lr-tb;fill:#000000;fill-opacity:1;fill-rule:nonzero;stroke:none"
           x="0"
           dx="0 0.472675 -0.21717501 0.51099998 -0.498225 0.34492499 0.191625"
           y="0">RNAfold</tspan></text>
    </g>
    <g
       id="g23">
      <text
         id="text23"
         xml:space="preserve"
         transform="matrix(1.3333333,0,0,1.3333333,498.648,106.848)"
         clip-path="url(#clipPath24)"><tspan
           id="tspan23"
           style="font-variant:normal;font-weight:normal;font-size:12.775px;font-family:'Times New Roman';writing-mode:lr-tb;fill:#000000;fill-opacity:1;fill-rule:nonzero;stroke:none"
           x="0"
           dx="0 0.36300001"
           y="0">1.</tspan></text>
    </g>
    <g
       id="g24">
      <text
         id="text24"
         xml:space="preserve"
         transform="matrix(1.3333333,0,0,1.3333333,534.67467,106.848)"
         clip-path="url(#clipPath25)"><tspan
           id="tspan24"
           style="font-variant:normal;font-weight:normal;font-size:12.775px;font-family:'Times New Roman';writing-mode:lr-tb;fill:#000000;fill-opacity:1;fill-rule:nonzero;stroke:none"
           x="0"
           dx="0 0.51099998 -0.38325"
           y="0">Dot</tspan></text>
      <text
         id="text25"
         xml:space="preserve"
         transform="matrix(1.3333333,0,0,1.3333333,560.67467,106.848)"
         clip-path="url(#clipPath26)"><tspan
           id="tspan25"
           style="font-variant:normal;font-weight:normal;font-size:12.775px;font-family:'Times New Roman';writing-mode:lr-tb;fill:#000000;fill-opacity:1;fill-rule:nonzero;stroke:none"
           x="0"
           y="0">-</tspan></text>
      <text
         id="text26"
         xml:space="preserve"
         transform="matrix(1.3333333,0,0,1.3333333,566.54133,106.848)"
         clip-path="url(#clipPath27)"><tspan
           id="tspan26"
           style="font-variant:normal;font-weight:normal;font-size:12.775px;font-family:'Times New Roman';writing-mode:lr-tb;fill:#000000;fill-opacity:1;fill-rule:nonzero;stroke:none"
           x="0"
           dx="0 0.34492499 0.22995 -0.42157501 0.31937501 0.34492499 -0.42157501 0.191625 -0.191625 0.34492499 0.34492499 0.191625 -0.42157501 0.191625 0.191625 0.34492499 -0.38325"
           y="0">bracket notation </tspan></text>
    </g>
    <g
       id="g27">
      <text
         id="text27"
         xml:space="preserve"
         transform="matrix(1.3333333,0,0,1.3333333,499.98133,127.87467)"
         clip-path="url(#clipPath28)"><tspan
           id="tspan27"
           style="font-variant:normal;font-weight:normal;font-size:12.775px;font-family:'Times New Roman';writing-mode:lr-tb;fill:#000000;fill-opacity:1;fill-rule:nonzero;stroke:none"
           x="0"
           dx="0 0.36300001"
           y="0">2.</tspan></text>
    </g>
    <g
       id="g28">
      <text
         id="text28"
         xml:space="preserve"
         transform="matrix(1.3333333,0,0,1.3333333,536.008,127.87467)"
         clip-path="url(#clipPath29)"><tspan
           id="tspan28"
           style="font-variant:normal;font-weight:normal;font-size:12.775px;font-family:'Times New Roman';writing-mode:lr-tb;fill:#000000;fill-opacity:1;fill-rule:nonzero;stroke:none"
           x="0"
           y="0"> </tspan></text>
      <text
         id="text29"
         xml:space="preserve"
         transform="matrix(1.3333333,0,0,1.3333333,540.34133,127.87467)"
         clip-path="url(#clipPath30)"><tspan
           id="tspan29"
           style="font-variant:normal;font-weight:normal;font-size:12.775px;font-family:'Times New Roman';writing-mode:lr-tb;fill:#000000;fill-opacity:1;fill-rule:nonzero;stroke:none"
           x="0"
           dx="0 0.472675 -0.42157501 0.26827499 0.31937501 -0.191625 0.34492499 -0.42157501 0.191625 0.22995 -0.191625 0.34492499 0.22995 -0.38325 0.34492499 -0.191625 0.54932499 -0.472675 0.31937501 0.34492499 -0.191625 -0.191625"
           y="0">Base pair prob. seq.  </tspan></text>
    </g>
    <g
       id="g30">
      <path
         id="path31"
         d="m 547.88,315.37 11.43,45.75 h 137.82 l -11.44,-45.75 z"
         style="fill:#ffffff;fill-opacity:1;fill-rule:evenodd;stroke:#000000;stroke-width:1;stroke-linecap:butt;stroke-linejoin:miter;stroke-miterlimit:10;stroke-dasharray:none;stroke-opacity:1"
         transform="matrix(1.3333333,0,0,-1.3333333,-241.392,651.91467)" />
    </g>
    <g
       id="g31">
      <text
         id="text31"
         xml:space="preserve"
         transform="matrix(1.3333333,0,0,1.3333333,535.51467,196.87467)"
         clip-path="url(#clipPath32)"><tspan
           id="tspan31"
           style="font-variant:normal;font-weight:normal;font-size:12.775px;font-family:'Times New Roman';writing-mode:lr-tb;fill:#000000;fill-opacity:1;fill-rule:nonzero;stroke:none"
           x="0"
           dx="0 0.34492499 -0.38325 0.34492499 -0.191625 0.31937501 0.34492499 -0.38325 0.54932499 0.31937501 -0.38325 0.191625 0.31937501 -0.38325"
           y="0">827 augmented </tspan></text>
      <text
         id="text32"
         xml:space="preserve"
         transform="matrix(1.3333333,0,0,1.3333333,531.90133,217.91467)"
         clip-path="url(#clipPath33)"><tspan
           id="tspan32"
           style="font-variant:normal;font-weight:normal;font-size:12.775px;font-family:'Times New Roman';writing-mode:lr-tb;fill:#000000;fill-opacity:1;fill-rule:nonzero;stroke:none"
           x="0"
           dx="0 0.34492499 0.22995"
           y="0">pre</tspan></text>
      <text
         id="text33"
         xml:space="preserve"
         transform="matrix(1.3333333,0,0,1.3333333,554.07467,217.91467)"
         clip-path="url(#clipPath34)"><tspan
           id="tspan33"
           style="font-variant:normal;font-weight:normal;font-size:12.775px;font-family:'Times New Roman';writing-mode:lr-tb;fill:#000000;fill-opacity:1;fill-rule:nonzero;stroke:none"
           x="0"
           y="0">-</tspan></text>
      <text
         id="text34"
         xml:space="preserve"
         transform="matrix(1.3333333,0,0,1.3333333,559.91467,217.91467)"
         clip-path="url(#clipPath35)"><tspan
           id="tspan34"
           style="font-variant:normal;font-weight:normal;font-size:12.775px;font-family:'Times New Roman';writing-mode:lr-tb;fill:#000000;fill-opacity:1;fill-rule:nonzero;stroke:none"
           x="0"
           dx="0 0.54932499 -0.54932499 0.472675 -0.21717501 -0.21717501 -0.191625 0.26827499 0.31937501 -0.38325 0.54932499"
           y="0">miRNA seq. </tspan></text>
    </g>
    <g
       id="g35">
      <path
         id="path36"
         d="m 232.13,229.12 h 118.5 v 38.25 h -118.5 z"
         style="fill:#ffffff;fill-opacity:1;fill-rule:evenodd;stroke:#000000;stroke-width:1;stroke-linecap:butt;stroke-linejoin:miter;stroke-miterlimit:10;stroke-dasharray:none;stroke-opacity:1"
         transform="matrix(1.3333333,0,0,-1.3333333,-241.392,651.91467)" />
    </g>
    <g
       id="g36">
      <text
         id="text36"
         xml:space="preserve"
         transform="matrix(1.3333333,0,0,1.3333333,106.968,317.55467)"
         clip-path="url(#clipPath37)"><tspan
           id="tspan36"
           style="font-variant:normal;font-weight:normal;font-size:12.775px;font-family:'Times New Roman';writing-mode:lr-tb;fill:#000000;fill-opacity:1;fill-rule:nonzero;stroke:none"
           x="0"
           dx="0 -0.3066 0.191625 -0.191625 0.31937501 -0.191625 0.26827499 0.31937501 0.22995 -0.54932499 0.31937501 0.26827499"
           y="0">Time series </tspan></text>
      <text
         id="text37"
         xml:space="preserve"
         transform="matrix(1.3333333,0,0,1.3333333,115.11467,338.58133)"
         clip-path="url(#clipPath38)"><tspan
           id="tspan37"
           style="font-variant:normal;font-weight:normal;font-size:12.775px;font-family:'Times New Roman';writing-mode:lr-tb;fill:#000000;fill-opacity:1;fill-rule:nonzero;stroke:none"
           x="0"
           dx="0 0.31937501 -0.38325 0.31937501 0.34492499 -0.38325 0.191625 0.34492499"
           y="0">encoding</tspan></text>
    </g>
    <g
       id="g38">
      <path
         id="path39"
         d="m 592.13,225.37 11.25,45 h 138.75 l -11.25,-45 z"
         style="fill:#ffffff;fill-opacity:1;fill-rule:evenodd;stroke:#000000;stroke-width:1;stroke-linecap:butt;stroke-linejoin:miter;stroke-miterlimit:10;stroke-dasharray:none;stroke-opacity:1"
         transform="matrix(1.3333333,0,0,-1.3333333,-241.392,651.91467)" />
    </g>
    <g
       id="g39">
      <text
         id="text39"
         xml:space="preserve"
         transform="matrix(1.3333333,0,0,1.3333333,584.408,317.87467)"
         clip-path="url(#clipPath40)"><tspan
           id="tspan39"
           style="font-variant:normal;font-weight:normal;font-size:12.75px;font-family:'Times New Roman';writing-mode:lr-tb;fill:#000000;fill-opacity:1;fill-rule:nonzero;stroke:none"
           x="0"
           dx="0 0.35699999 -0.19125 0.35699999 -0.36974999 0.35699999 -0.19125 0.57375002 0.35699999 -0.54825002 0.19125 0.19125 0.35699999 -0.40799999 0.24225 0.19125 0.33149999 0.19125 -0.40799999"
           y="0">3,308 multivariate </tspan></text>
      <text
         id="text40"
         xml:space="preserve"
         transform="matrix(1.3333333,0,0,1.3333333,610.78133,338.87467)"
         clip-path="url(#clipPath41)"><tspan
           id="tspan40"
           style="font-variant:normal;font-weight:normal;font-size:12.775px;font-family:'Times New Roman';writing-mode:lr-tb;fill:#000000;fill-opacity:1;fill-rule:nonzero;stroke:none"
           x="0"
           dx="0 0.191625 0.191625 -0.191625 0.31937501 -0.191625 0.26827499 0.31937501 -0.498225 0.191625 0.31937501"
           y="0">time series</tspan></text>
    </g>
    <g
       id="g41">
      <path
         id="path42"
         d="m 595.88,125.62 h 142.5 v 31.5 h -142.5 z"
         style="fill:#ffffff;fill-opacity:1;fill-rule:evenodd;stroke:#000000;stroke-width:1;stroke-linecap:butt;stroke-linejoin:miter;stroke-miterlimit:10;stroke-dasharray:none;stroke-opacity:1"
         transform="matrix(1.3333333,0,0,-1.3333333,-241.392,651.91467)" />
    </g>
    <g
       id="g42">
      <text
         id="text42"
         xml:space="preserve"
         transform="matrix(1.3333333,0,0,1.3333333,608.14133,459.71467)"
         clip-path="url(#clipPath43)"><tspan
           id="tspan42"
           style="font-variant:normal;font-weight:normal;font-size:12.75px;font-family:'Times New Roman';writing-mode:lr-tb;fill:#000000;fill-opacity:1;fill-rule:nonzero;stroke:none"
           x="0"
           dx="0 -0.29324999 0.19125 -0.14025 0.33149999 -0.19125 0.28049999 0.33149999 0.24225 -0.54825002 0.33149999 0.28049999"
           y="0">Time series </tspan></text>
      <text
         id="text43"
         xml:space="preserve"
         transform="matrix(1.3333333,0,0,1.3333333,596.90133,480.71467)"
         clip-path="url(#clipPath44)"><tspan
           id="tspan43"
           style="font-variant:normal;font-weight:normal;font-size:12.775px;font-family:'Times New Roman';writing-mode:lr-tb;fill:#000000;fill-opacity:1;fill-rule:nonzero;stroke:none"
           x="0"
           dx="0 0.191625 0.22995 -0.396025 0.37047499 0.293825 0.22995 -0.35769999 0.22995 0.574875 -0.396025 0.191625 0.191625 0.37047499"
           y="0">transformation</tspan></text>
    </g>
    <g
       id="g44">
      <path
         id="path45"
         d="m 292.13,420.61 57.58,0.01 v 1 l -57.59,-0.01 z m 56.58,-2.49 6,3 -6,3 z"
         style="fill:#000000;fill-opacity:1;fill-rule:nonzero;stroke:none"
         transform="matrix(1.3333333,0,0,-1.3333333,-241.392,651.91467)" />
    </g>
    <g
       id="g45">
      <path
         id="path46"
         d="m 484.88,421.62 27.95,-0.48 -0.02,-1 -27.94,0.49 z m 26.99,2.04 5.95,-3.1 -6.05,-2.9 z"
         style="fill:#000000;fill-opacity:1;fill-rule:nonzero;stroke:none"
         transform="matrix(1.3333333,0,0,-1.3333333,-241.392,651.91467)" />
    </g>
    <g
       id="g46">
      <path
         id="path47"
         d="m 621.63,383.63 v -17.66 h 1 v 17.66 z m -2.5,-16.66 3,-6 3,6 z"
         style="fill:#000000;fill-opacity:1;fill-rule:nonzero;stroke:none"
         transform="matrix(1.3333333,0,0,-1.3333333,-241.392,651.91467)" />
    </g>
    <g
       id="g47">
      <path
         id="path48"
         d="m 552.94,339.13 -187.57,-0.28 v -1 l 187.57,0.28 z m -186.57,2.22 -5.99,-3.01 6,-2.99 z"
         style="fill:#000000;fill-opacity:1;fill-rule:nonzero;stroke:none"
         transform="matrix(1.3333333,0,0,-1.3333333,-241.392,651.91467)" />
    </g>
    <g
       id="g48">
      <path
         id="path49"
         d="m 387.38,99.375 20.81,83.245 H 567.38 L 546.56,99.375 Z"
         style="fill:#ffffff;fill-opacity:1;fill-rule:evenodd;stroke:#000000;stroke-width:1;stroke-linecap:butt;stroke-linejoin:miter;stroke-miterlimit:10;stroke-dasharray:none;stroke-opacity:1"
         transform="matrix(1.3333333,0,0,-1.3333333,-241.392,651.91467)" />
    </g>
    <g
       id="g49">
      <text
         id="text49"
         xml:space="preserve"
         transform="matrix(1.3333333,0,0,1.3333333,341.34133,429.38133)"
         clip-path="url(#clipPath50)"><tspan
           id="tspan49"
           style="font-variant:normal;font-weight:normal;font-size:12.75px;font-family:'Times New Roman';writing-mode:lr-tb;fill:#000000;fill-opacity:1;fill-rule:nonzero;stroke:none"
           x="0"
           dx="0 0.35699999 -0.19125 0.35699999 -0.36974999 0.35699999 -0.19125 0.19125 0.35699999 0.28049999 -0.54825002 0.33149999 0.35699999 -0.40799999 0.33149999"
           y="0">3,308 instances</tspan></text>
    </g>
    <g
       id="g50">
      <text
         id="text50"
         xml:space="preserve"
         transform="matrix(1.3333333,0,0,1.3333333,339.34133,450.408)"
         clip-path="url(#clipPath51)"><tspan
           id="tspan50"
           style="font-variant:normal;font-weight:normal;font-size:12.75px;font-family:'Times New Roman';writing-mode:lr-tb;fill:#000000;fill-opacity:1;fill-rule:nonzero;stroke:none"
           x="0"
           dx="0 0.24225 0.44624999 -0.40799999 0.33149999 0.35699999 -0.19125 0.35699999 -0.40799999 0.28049999 -0.19125 0.33149999 0.35699999 -0.36974999 0.35699999 0.19125"
           y="0">(Each has about </tspan></text>
      <text
         id="text51"
         xml:space="preserve"
         transform="matrix(1.3333333,0,0,1.3333333,317.03467,470.408)"
         clip-path="url(#clipPath52)"><tspan
           id="tspan51"
           style="font-variant:normal;font-weight:normal;font-size:12.775px;font-family:'Times New Roman';writing-mode:lr-tb;fill:#000000;fill-opacity:1;fill-rule:nonzero;stroke:none"
           x="0"
           dx="0 0.37047499 -0.16607501 0.37047499 -0.35769999 0.37047499 -0.140525 0.37047499 0.37047499 -0.16607501 0.37047499 -0.35769999 0.37047499 -0.16607501 0.25549999 0.34492499 0.34492499 -0.52377498 0.37047499 0.25549999 0.34492499 -0.44712499"
           y="0">1,000~50,000 features </tspan></text>
      <text
         id="text52"
         xml:space="preserve"
         transform="matrix(1.3333333,0,0,1.3333333,334.968,491.448)"
         clip-path="url(#clipPath53)"><tspan
           id="tspan52"
           style="font-variant:normal;font-weight:normal;font-size:12.775px;font-family:'Times New Roman';writing-mode:lr-tb;fill:#000000;fill-opacity:1;fill-rule:nonzero;stroke:none"
           x="0"
           dx="0 0.37047499 -0.396025 0.37047499 0.34492499 -0.35769999 0.37047499 0.2044 0.37047499 -0.35769999 0.56209999 -0.35769999 0.37047499 -0.16607501 0.2044 0.37047499 -0.396025"
           y="0">depending on the </tspan></text>
      <text
         id="text53"
         xml:space="preserve"
         transform="matrix(1.3333333,0,0,1.3333333,320.47467,512.47467)"
         clip-path="url(#clipPath54)"><tspan
           id="tspan53"
           style="font-variant:normal;font-weight:normal;font-size:12.775px;font-family:'Times New Roman';writing-mode:lr-tb;fill:#000000;fill-opacity:1;fill-rule:nonzero;stroke:none"
           x="0"
           dx="0 0.191625 0.22995 -0.42157501 0.34492499 0.26827499 0.22995 -0.38325 0.22995 0.54932499 -0.42157501 0.191625 0.191625 0.34492499 -0.38325 0.54932499 -0.38325 0.26827499 0.31937501 -0.38325 0.54932499"
           y="0">transformation used.)</tspan></text>
    </g>
    <g
       id="g54">
      <path
         id="path55"
         d="m 214.88,125.62 h 91.5 v 30.75 h -91.5 z"
         style="fill:#ffffff;fill-opacity:1;fill-rule:evenodd;stroke:#000000;stroke-width:1;stroke-linecap:butt;stroke-linejoin:miter;stroke-miterlimit:10;stroke-dasharray:none;stroke-opacity:1"
         transform="matrix(1.3333333,0,0,-1.3333333,-241.392,651.91467)" />
    </g>
    <g
       id="g55">
      <text
         id="text55"
         xml:space="preserve"
         transform="matrix(1.3333333,0,0,1.3333333,72.874667,470.94133)"
         clip-path="url(#clipPath56)"><tspan
           id="tspan55"
           style="font-variant:normal;font-weight:normal;font-size:12.75px;font-family:'Times New Roman';writing-mode:lr-tb;fill:#000000;fill-opacity:1;fill-rule:nonzero;stroke:none"
           x="0"
           dx="0 0.48449999 -0.54825002 0.33149999 0.28049999 -0.45899999 0.19125 0.24225 0.19125 0.33149999"
           y="0">Classifier</tspan></text>
    </g>
    <g
       id="g56">
      <path
         id="path57"
         d="m 595.78,141.88 -33.91,-0.6 0.01,-1 33.92,0.6 z m -32.96,1.92 -5.94,-3.11 6.05,-2.89 z"
         style="fill:#000000;fill-opacity:1;fill-rule:nonzero;stroke:none"
         transform="matrix(1.3333333,0,0,-1.3333333,-241.392,651.91467)" />
    </g>
    <g
       id="g57">
      <path
         id="path58"
         d="m 397.44,140.06 -86.07,0.06 0.01,1 86.06,-0.06 z m -85.07,-2.44 -5.99,3 6,3 z"
         style="fill:#000000;fill-opacity:1;fill-rule:nonzero;stroke:none"
         transform="matrix(1.3333333,0,0,-1.3333333,-241.392,651.91467)" />
    </g>
    <g
       id="g58">
      <text
         id="text58"
         xml:space="preserve"
         transform="matrix(1.3333333,0,0,1.3333333,198.008,437.15467)"
         clip-path="url(#clipPath59)"><tspan
           id="tspan58"
           style="font-variant:normal;font-weight:normal;font-size:12.775px;font-family:'Times New Roman';writing-mode:lr-tb;fill:#000000;fill-opacity:1;fill-rule:nonzero;stroke:none"
           x="0"
           y="0">5</tspan></text>
      <text
         id="text59"
         xml:space="preserve"
         transform="matrix(1.3333333,0,0,1.3333333,206.67467,437.15467)"
         clip-path="url(#clipPath60)"><tspan
           id="tspan59"
           style="font-variant:normal;font-weight:normal;font-size:12.775px;font-family:'Times New Roman';writing-mode:lr-tb;fill:#000000;fill-opacity:1;fill-rule:nonzero;stroke:none"
           x="0"
           y="0">-</tspan></text>
      <text
         id="text60"
         xml:space="preserve"
         transform="matrix(1.3333333,0,0,1.3333333,212.51467,437.15467)"
         clip-path="url(#clipPath61)"><tspan
           id="tspan60"
           style="font-variant:normal;font-weight:normal;font-size:12.775px;font-family:'Times New Roman';writing-mode:lr-tb;fill:#000000;fill-opacity:1;fill-rule:nonzero;stroke:none"
           x="0"
           dx="0 0.25549999 0.37047499 -0.54932499 0.37047499 -0.191625 0.34492499 0.25549999 0.37047499 -0.44712499"
           y="0">fold cross</tspan></text>
      <text
         id="text61"
         xml:space="preserve"
         transform="matrix(1.3333333,0,0,1.3333333,280.408,437.15467)"
         clip-path="url(#clipPath62)"><tspan
           id="tspan61"
           style="font-variant:normal;font-weight:normal;font-size:12.775px;font-family:'Times New Roman';writing-mode:lr-tb;fill:#000000;fill-opacity:1;fill-rule:nonzero;stroke:none"
           x="0"
           y="0">-</tspan></text>
      <text
         id="text62"
         xml:space="preserve"
         transform="matrix(1.3333333,0,0,1.3333333,198.008,458.18133)"
         clip-path="url(#clipPath63)"><tspan
           id="tspan62"
           style="font-variant:normal;font-weight:normal;font-size:12.775px;font-family:'Times New Roman';writing-mode:lr-tb;fill:#000000;fill-opacity:1;fill-rule:nonzero;stroke:none"
           x="0"
           dx="0 0.34492499 -0.42157501 0.191625 0.191625 0.34492499 -0.42157501 0.191625 0.191625 0.34492499"
           y="0">validation</tspan></text>
    </g>
    <g
       id="g63">
      <path
         id="path64"
         d="m 350.63,248.38 242.26,-0.23 v -1 l -242.27,0.23 z m 241.26,2.28 6,-3.01 -6,-2.99 z"
         style="fill:#000000;fill-opacity:1;fill-rule:nonzero;stroke:none"
         transform="matrix(1.3333333,0,0,-1.3333333,-241.392,651.91467)" />
    </g>
    <g
       id="g64">
      <text
         id="text64"
         xml:space="preserve"
         transform="matrix(1.3333333,0,0,1.3333333,309.74133,372.608)"
         clip-path="url(#clipPath65)"><tspan
           id="tspan64"
           style="font-variant:normal;font-weight:normal;font-size:12.775px;font-family:'Times New Roman';writing-mode:lr-tb;fill:#000000;fill-opacity:1;fill-rule:nonzero;stroke:none"
           x="0"
           dx="0 0.472675 -0.38325 0.31937501 0.34492499 -0.42157501"
           y="0">Rocket</tspan></text>
      <text
         id="text65"
         xml:space="preserve"
         transform="matrix(1.3333333,0,0,1.3333333,358.78133,372.608)"
         clip-path="url(#clipPath66)"><tspan
           id="tspan65"
           style="font-variant:normal;font-weight:normal;font-size:12.775px;font-family:'Times New Roman';writing-mode:lr-tb;fill:#000000;fill-opacity:1;fill-rule:nonzero;stroke:none"
           x="0"
           y="0">-</tspan></text>
      <text
         id="text66"
         xml:space="preserve"
         transform="matrix(1.3333333,0,0,1.3333333,364.608,372.608)"
         clip-path="url(#clipPath67)"><tspan
           id="tspan66"
           style="font-variant:normal;font-weight:normal;font-size:12.775px;font-family:'Times New Roman';writing-mode:lr-tb;fill:#000000;fill-opacity:1;fill-rule:nonzero;stroke:none"
           x="0"
           dx="0 0.34492499 -0.42157501 0.26827499 0.31937501 -0.38325 0.54932499 -0.26827499 0.191625 0.31937501 -0.472675 0.26827499 0.191625 0.22995 0.191625 -0.42157501"
           y="0">based Classifier</tspan></text>
    </g>
    <g
       id="g67">
      <path
         id="path68"
         d="m 667.62,225.38 v -63.01 h -1 v 63.01 z m 2.5,-62.01 -3,-6 -3,6 z"
         style="fill:#000000;fill-opacity:1;fill-rule:nonzero;stroke:none"
         transform="matrix(1.3333333,0,0,-1.3333333,-241.392,651.91467)" />
    </g>
    <g
       id="g68">
      <text
         id="text68"
         xml:space="preserve"
         transform="matrix(1.3333333,0,0,1.3333333,347.608,263.048)"
         clip-path="url(#clipPath69)"><tspan
           id="tspan68"
           style="font-variant:normal;font-weight:normal;font-size:12.775px;font-family:'Times New Roman';writing-mode:lr-tb;fill:#000000;fill-opacity:1;fill-rule:nonzero;stroke:none"
           x="0"
           dx="0 -0.076650001 0.43435001 0.38325 -0.26827499 0.472675 0.191625 -0.42157501 0.31937501"
           y="0">MTSCCleav</tspan></text>
    </g>
    <g
       id="g69">
      <path
         id="path70"
         d="m 291.87,315.38 0.04,-43.34 -1,-0.01 -0.04,43.34 z m 2.54,-42.34 -2.99,-6 -3.01,5.99 z"
         style="fill:#000000;fill-opacity:1;fill-rule:nonzero;stroke:none"
         transform="matrix(1.3333333,0,0,-1.3333333,-241.392,651.91467)" />
    </g>
    <g
       id="g70">
      <text
         id="text70"
         xml:space="preserve"
         transform="matrix(1.3333333,0,0,1.3333333,320.34133,15.381333)"
         clip-path="url(#clipPath71)"><tspan
           id="tspan70"
           style="font-variant:normal;font-weight:normal;font-size:12.75px;font-family:'Times New Roman';writing-mode:lr-tb;fill:#000000;fill-opacity:1;fill-rule:nonzero;stroke:none"
           x="0"
           dx="0 0.53549999 -0.40799999 0.19125 0.33149999 -0.19125 0.35699999 0.24225 -0.40799999 0.35699999 0.33149999 -0.49724999 0.33149999 0.19125 0.19125 -0.36974999"
           y="0">Data preparation</tspan></text>
    </g>
  </g>
</svg>
