<?xml version="1.0" encoding="UTF-8" standalone="no"?>
<!-- Created with Inkscape (http://www.inkscape.org/) -->

<svg
   version="1.1"
   id="svg1"
   width="806.95599"
   height="340.86932"
   viewBox="0 0 806.95599 340.86932"
   xmlns="http://www.w3.org/2000/svg"
   xmlns:svg="http://www.w3.org/2000/svg">
  <defs
     id="defs1">
    <clipPath
       clipPathUnits="userSpaceOnUse"
       id="clipPath3">
      <path
         d="M 0,1.2207e-4 H 960 V 540.00012 H 0 Z"
         transform="translate(2.5000001e-6)"
         clip-rule="evenodd"
         id="path3" />
    </clipPath>
    <clipPath
       clipPathUnits="userSpaceOnUse"
       id="clipPath7">
      <path
         d="M 1.4305e-5,0 H 960.00001 V 540 H 1.4305e-5 Z"
         transform="matrix(1,0,0,-1,-244.45001,393.70001)"
         clip-rule="evenodd"
         id="path7" />
    </clipPath>
    <clipPath
       clipPathUnits="userSpaceOnUse"
       id="clipPath8">
      <path
         d="M 1.4305e-5,0 H 960.00001 V 540 H 1.4305e-5 Z"
         transform="matrix(1,0,0,-1,-238.77001,377.92001)"
         clip-rule="evenodd"
         id="path8" />
    </clipPath>
    <clipPath
       clipPathUnits="userSpaceOnUse"
       id="clipPath9">
      <path
         d="M 1.4305e-5,0 H 960.00001 V 540 H 1.4305e-5 Z"
         transform="matrix(1,0,0,-1,-291.18,377.92001)"
         clip-rule="evenodd"
         id="path9" />
    </clipPath>
    <clipPath
       clipPathUnits="userSpaceOnUse"
       id="clipPath10">
      <path
         d="M 1.4305e-5,0 H 960.00001 V 540 H 1.4305e-5 Z"
         transform="matrix(1,0,0,-1,-235.05001,362.90001)"
         clip-rule="evenodd"
         id="path10" />
    </clipPath>
    <clipPath
       clipPathUnits="userSpaceOnUse"
       id="clipPath12">
      <path
         d="M 1.4305e-5,0 H 960.00001 V 540 H 1.4305e-5 Z"
         transform="matrix(1,0,0,-1,-392.85001,391.00001)"
         clip-rule="evenodd"
         id="path12" />
    </clipPath>
    <clipPath
       clipPathUnits="userSpaceOnUse"
       id="clipPath13">
      <path
         d="M 1.4305e-5,0 H 960.00001 V 540 H 1.4305e-5 Z"
         transform="matrix(1,0,0,-1,-477.27001,391.00001)"
         clip-rule="evenodd"
         id="path13" />
    </clipPath>
    <clipPath
       clipPathUnits="userSpaceOnUse"
       id="clipPath14">
      <path
         d="M 1.4305e-5,0 H 960.00001 V 540 H 1.4305e-5 Z"
         transform="matrix(1,0,0,-1,-405.15001,375.23001)"
         clip-rule="evenodd"
         id="path14" />
    </clipPath>
    <clipPath
       clipPathUnits="userSpaceOnUse"
       id="clipPath16">
      <path
         d="M 1.4305e-5,0 H 960.00001 V 540 H 1.4305e-5 Z"
         transform="matrix(1,0,0,-1,-427.40001,299.10001)"
         clip-rule="evenodd"
         id="path16" />
    </clipPath>
    <clipPath
       clipPathUnits="userSpaceOnUse"
       id="clipPath17">
      <path
         d="M 1.4305e-5,0 H 960.00001 V 540 H 1.4305e-5 Z"
         transform="matrix(1,0,0,-1,-421.95001,283.33)"
         clip-rule="evenodd"
         id="path17" />
    </clipPath>
    <clipPath
       clipPathUnits="userSpaceOnUse"
       id="clipPath19">
      <path
         d="M 1.4305e-5,0 H 960.00001 V 540 H 1.4305e-5 Z"
         transform="matrix(1,0,0,-1,-588.47001,406.15001)"
         clip-rule="evenodd"
         id="path19" />
    </clipPath>
    <clipPath
       clipPathUnits="userSpaceOnUse"
       id="clipPath20">
      <path
         d="M 1.4305e-5,0 H 960.00001 V 540 H 1.4305e-5 Z"
         transform="matrix(1,0,0,-1,-645.70002,390.38001)"
         clip-rule="evenodd"
         id="path20" />
    </clipPath>
    <clipPath
       clipPathUnits="userSpaceOnUse"
       id="clipPath21">
      <path
         d="M 1.4305e-5,0 H 960.00001 V 540 H 1.4305e-5 Z"
         transform="matrix(1,0,0,-1,-602.35002,375.35001)"
         clip-rule="evenodd"
         id="path21" />
    </clipPath>
    <clipPath
       clipPathUnits="userSpaceOnUse"
       id="clipPath22">
      <path
         d="M 1.4305e-5,0 H 960.00001 V 540 H 1.4305e-5 Z"
         transform="matrix(1,0,0,-1,-629.38002,375.35001)"
         clip-rule="evenodd"
         id="path22" />
    </clipPath>
    <clipPath
       clipPathUnits="userSpaceOnUse"
       id="clipPath23">
      <path
         d="M 1.4305e-5,0 H 960.00001 V 540 H 1.4305e-5 Z"
         transform="matrix(1,0,0,-1,-648.90001,375.35001)"
         clip-rule="evenodd"
         id="path23" />
    </clipPath>
    <clipPath
       clipPathUnits="userSpaceOnUse"
       id="clipPath24">
      <path
         d="M 1.4305e-5,0 H 960.00001 V 540 H 1.4305e-5 Z"
         transform="matrix(1,0,0,-1,-653.28001,375.35001)"
         clip-rule="evenodd"
         id="path24" />
    </clipPath>
    <clipPath
       clipPathUnits="userSpaceOnUse"
       id="clipPath25">
      <path
         d="M 1.4305e-5,0 H 960.00001 V 540 H 1.4305e-5 Z"
         transform="matrix(1,0,0,-1,-604.97002,359.60001)"
         clip-rule="evenodd"
         id="path25" />
    </clipPath>
    <clipPath
       clipPathUnits="userSpaceOnUse"
       id="clipPath26">
      <path
         d="M 1.4305e-5,0 H 960.00001 V 540 H 1.4305e-5 Z"
         transform="matrix(1,0,0,-1,-632.00002,359.60001)"
         clip-rule="evenodd"
         id="path26" />
    </clipPath>
    <clipPath
       clipPathUnits="userSpaceOnUse"
       id="clipPath28">
      <path
         d="M 1.4305e-5,0 H 960.00001 V 540 H 1.4305e-5 Z"
         transform="matrix(1,0,0,-1,-630.00001,299.10001)"
         clip-rule="evenodd"
         id="path28" />
    </clipPath>
    <clipPath
       clipPathUnits="userSpaceOnUse"
       id="clipPath29">
      <path
         d="M 1.4305e-5,0 H 960.00001 V 540 H 1.4305e-5 Z"
         transform="matrix(1,0,0,-1,-627.30001,283.33)"
         clip-rule="evenodd"
         id="path29" />
    </clipPath>
    <clipPath
       clipPathUnits="userSpaceOnUse"
       id="clipPath30">
      <path
         d="M 1.4305e-5,0 H 960.00001 V 540 H 1.4305e-5 Z"
         transform="matrix(1,0,0,-1,-643.93002,283.33)"
         clip-rule="evenodd"
         id="path30" />
    </clipPath>
    <clipPath
       clipPathUnits="userSpaceOnUse"
       id="clipPath31">
      <path
         d="M 1.4305e-5,0 H 960.00001 V 540 H 1.4305e-5 Z"
         transform="matrix(1,0,0,-1,-648.33001,283.33)"
         clip-rule="evenodd"
         id="path31" />
    </clipPath>
    <clipPath
       clipPathUnits="userSpaceOnUse"
       id="clipPath33">
      <path
         d="M 1.4305e-5,0 H 960.00001 V 540 H 1.4305e-5 Z"
         transform="matrix(1,0,0,-1,-237.05001,299.10001)"
         clip-rule="evenodd"
         id="path33" />
    </clipPath>
    <clipPath
       clipPathUnits="userSpaceOnUse"
       id="clipPath34">
      <path
         d="M 1.4305e-5,0 H 960.00001 V 540 H 1.4305e-5 Z"
         transform="matrix(1,0,0,-1,-228.63001,283.33)"
         clip-rule="evenodd"
         id="path34" />
    </clipPath>
    <clipPath
       clipPathUnits="userSpaceOnUse"
       id="clipPath36">
      <path
         d="M 1.4305e-5,0 H 960.00001 V 540 H 1.4305e-5 Z"
         transform="matrix(1,0,0,-1,-213.60001,208.47001)"
         clip-rule="evenodd"
         id="path36" />
    </clipPath>
    <clipPath
       clipPathUnits="userSpaceOnUse"
       id="clipPath37">
      <path
         d="M 1.4305e-5,0 H 960.00001 V 540 H 1.4305e-5 Z"
         transform="matrix(1,0,0,-1,-231.75001,192.7)"
         clip-rule="evenodd"
         id="path37" />
    </clipPath>
    <clipPath
       clipPathUnits="userSpaceOnUse"
       id="clipPath39">
      <path
         d="M 1.4305e-5,0 H 960.00001 V 540 H 1.4305e-5 Z"
         transform="matrix(1,0,0,-1,-428.43001,208.47001)"
         clip-rule="evenodd"
         id="path39" />
    </clipPath>
    <clipPath
       clipPathUnits="userSpaceOnUse"
       id="clipPath40">
      <path
         d="M 1.4305e-5,0 H 960.00001 V 540 H 1.4305e-5 Z"
         transform="matrix(1,0,0,-1,-424.88001,192.7)"
         clip-rule="evenodd"
         id="path40" />
    </clipPath>
    <clipPath
       clipPathUnits="userSpaceOnUse"
       id="clipPath48">
      <path
         d="M 1.4305e-5,0 H 960.00001 V 540 H 1.4305e-5 Z"
         transform="matrix(1,0,0,-1,-630.30001,208.67001)"
         clip-rule="evenodd"
         id="path48" />
    </clipPath>
    <clipPath
       clipPathUnits="userSpaceOnUse"
       id="clipPath49">
      <path
         d="M 1.4305e-5,0 H 960.00001 V 540 H 1.4305e-5 Z"
         transform="matrix(1,0,0,-1,-605.10001,192.9)"
         clip-rule="evenodd"
         id="path49" />
    </clipPath>
  </defs>
  <g
     id="g1">
    <g
       id="g2">
      <path
         id="path2"
         d="M 0,6.1035e-5 H 960 V 540.00006 H 0 Z"
         style="fill:#ffffff;fill-opacity:1;fill-rule:evenodd;stroke:none"
         transform="matrix(1.3333333,0,0,-1.3333333,-242.78267,576.696)"
         clip-path="url(#clipPath3)" />
    </g>
    <g
       id="g3">
      <path
         id="path4"
         d="m 223.88,418.41 c 0,-5.65 19.47,-10.22 43.5,-10.22 24.02,0 43.5,4.57 43.5,10.22 v -61.32 c 0,-5.64 -19.48,-10.22 -43.5,-10.22 -24.03,0 -43.5,4.58 -43.5,10.22 z"
         style="fill:#ffffff;fill-opacity:1;fill-rule:evenodd;stroke:none"
         transform="matrix(1.3333333,0,0,-1.3333333,-242.78267,576.696)" />
      <path
         id="path5"
         d="m 223.88,418.41 c 0,5.64 19.47,10.21 43.5,10.21 24.02,0 43.5,-4.57 43.5,-10.21 0,-5.65 -19.48,-10.22 -43.5,-10.22 -24.03,0 -43.5,4.57 -43.5,10.22 z"
         style="fill:#ffffff;fill-opacity:1;fill-rule:evenodd;stroke:none"
         transform="matrix(1.3333333,0,0,-1.3333333,-242.78267,576.696)" />
      <path
         id="path6"
         d="m 310.88,418.41 c 0,-5.65 -19.48,-10.22 -43.5,-10.22 -24.03,0 -43.5,4.57 -43.5,10.22 0,5.64 19.47,10.21 43.5,10.21 24.02,0 43.5,-4.57 43.5,-10.21 v -61.32 c 0,-5.64 -19.48,-10.22 -43.5,-10.22 -24.03,0 -43.5,4.58 -43.5,10.22 v 61.32"
         style="fill:none;stroke:#000000;stroke-width:1;stroke-linecap:butt;stroke-linejoin:miter;stroke-miterlimit:10;stroke-dasharray:none;stroke-opacity:1"
         transform="matrix(1.3333333,0,0,-1.3333333,-242.78267,576.696)" />
    </g>
    <g
       id="g6">
      <text
         id="text6"
         xml:space="preserve"
         transform="matrix(1.3333333,0,0,1.3333333,83.150667,51.762667)"
         clip-path="url(#clipPath7)"><tspan
           id="tspan6"
           style="font-variant:normal;font-weight:normal;font-size:12.775px;font-family:'Times New Roman';writing-mode:lr-tb;fill:#000000;fill-opacity:1;fill-rule:nonzero;stroke:none"
           x="0"
           dx="0 0.574875 -0.54932499 0.48545 0.37047499 -0.396025 0.293825"
           y="0">miRbase</tspan></text>
    </g>
    <g
       id="g7">
      <text
         id="text7"
         xml:space="preserve"
         transform="matrix(1.3333333,0,0,1.3333333,75.577333,72.802667)"
         clip-path="url(#clipPath8)"><tspan
           id="tspan7"
           style="font-variant:normal;font-weight:normal;font-size:12.775px;font-family:'Times New Roman';writing-mode:lr-tb;fill:#000000;fill-opacity:1;fill-rule:nonzero;stroke:none"
           x="0"
           dx="0 0.34492499 -0.38325 0.34492499 0.34492499 -0.38325 0.54932499 -0.38325 0.22995"
           y="0">38589 pre</tspan></text>
      <text
         id="text8"
         xml:space="preserve"
         transform="matrix(1.3333333,0,0,1.3333333,145.45733,72.802667)"
         clip-path="url(#clipPath9)"><tspan
           id="tspan8"
           style="font-variant:normal;font-weight:normal;font-size:12.775px;font-family:'Times New Roman';writing-mode:lr-tb;fill:#000000;fill-opacity:1;fill-rule:nonzero;stroke:none"
           x="0"
           y="0">-</tspan></text>
      <text
         id="text9"
         xml:space="preserve"
         transform="matrix(1.3333333,0,0,1.3333333,70.617333,92.829333)"
         clip-path="url(#clipPath10)"><tspan
           id="tspan9"
           style="font-variant:normal;font-weight:normal;font-size:12.775px;font-family:'Times New Roman';writing-mode:lr-tb;fill:#000000;fill-opacity:1;fill-rule:nonzero;stroke:none"
           x="0"
           dx="0 0.574875 -0.54932499 0.48545 -0.2044 -0.2044 -0.191625 0.293825 0.34492499 -0.35769999 0.54932499"
           y="0">miRNA seq. </tspan></text>
    </g>
    <g
       id="g10">
      <path
         id="path11"
         d="m 366.38,365.62 11.24,45 h 130.51 l -11.25,-45 z"
         style="fill:#ffffff;fill-opacity:1;fill-rule:evenodd;stroke:#000000;stroke-width:1;stroke-linecap:butt;stroke-linejoin:miter;stroke-miterlimit:10;stroke-dasharray:none;stroke-opacity:1"
         transform="matrix(1.3333333,0,0,-1.3333333,-242.78267,576.696)" />
    </g>
    <g
       id="g11">
      <text
         id="text11"
         xml:space="preserve"
         transform="matrix(1.3333333,0,0,1.3333333,281.01733,55.362667)"
         clip-path="url(#clipPath12)"><tspan
           id="tspan11"
           style="font-variant:normal;font-weight:normal;font-size:12.775px;font-family:'Times New Roman';writing-mode:lr-tb;fill:#000000;fill-opacity:1;fill-rule:nonzero;stroke:none"
           x="0"
           dx="0 0.34492499 -0.38325 0.34492499 -0.191625 0.26827499 0.31937501 0.191625 -0.42157501 0.31937501 0.191625 -0.42157501 0.34492499 -0.191625 0.34492499 0.22995"
           y="0">827 selected pre</tspan></text>
      <text
         id="text12"
         xml:space="preserve"
         transform="matrix(1.3333333,0,0,1.3333333,393.57733,55.362667)"
         clip-path="url(#clipPath13)"><tspan
           id="tspan12"
           style="font-variant:normal;font-weight:normal;font-size:12.775px;font-family:'Times New Roman';writing-mode:lr-tb;fill:#000000;fill-opacity:1;fill-rule:nonzero;stroke:none"
           x="0"
           y="0">-</tspan></text>
      <text
         id="text13"
         xml:space="preserve"
         transform="matrix(1.3333333,0,0,1.3333333,297.41733,76.389333)"
         clip-path="url(#clipPath14)"><tspan
           id="tspan13"
           style="font-variant:normal;font-weight:normal;font-size:12.775px;font-family:'Times New Roman';writing-mode:lr-tb;fill:#000000;fill-opacity:1;fill-rule:nonzero;stroke:none"
           x="0"
           dx="0 0.54932499 -0.54932499 0.472675 -0.21717501 -0.21717501 -0.191625 0.26827499 0.31937501 -0.38325"
           y="0">miRNA seq.</tspan></text>
    </g>
    <g
       id="g14">
      <path
         id="path15"
         d="m 391.88,273.37 11.43,45.75 h 138.57 l -11.44,-45.75 z"
         style="fill:#ffffff;fill-opacity:1;fill-rule:evenodd;stroke:#000000;stroke-width:1;stroke-linecap:butt;stroke-linejoin:miter;stroke-miterlimit:10;stroke-dasharray:none;stroke-opacity:1"
         transform="matrix(1.3333333,0,0,-1.3333333,-242.78267,576.696)" />
    </g>
    <g
       id="g15">
      <text
         id="text15"
         xml:space="preserve"
         transform="matrix(1.3333333,0,0,1.3333333,327.084,177.896)"
         clip-path="url(#clipPath16)"><tspan
           id="tspan15"
           style="font-variant:normal;font-weight:normal;font-size:12.775px;font-family:'Times New Roman';writing-mode:lr-tb;fill:#000000;fill-opacity:1;fill-rule:nonzero;stroke:none"
           x="0"
           dx="0 0.34492499 -0.38325 0.34492499 -0.191625 0.34492499 -0.191625 0.34492499 -0.191625 0.28105 0.54932499 -0.38325 0.34492499 0.34492499 -0.38325"
           y="0">827 x 4 = 3308 </tspan></text>
      <text
         id="text16"
         xml:space="preserve"
         transform="matrix(1.3333333,0,0,1.3333333,319.81733,198.92267)"
         clip-path="url(#clipPath17)"><tspan
           id="tspan16"
           style="font-variant:normal;font-weight:normal;font-size:12.775px;font-family:'Times New Roman';writing-mode:lr-tb;fill:#000000;fill-opacity:1;fill-rule:nonzero;stroke:none"
           x="0"
           dx="0 0.31937501 0.191625 -0.42157501 0.31937501 0.34492499 -0.42157501 0.34492499 0.31937501 -0.191625 0.34492499 -0.42157501 0.191625 0.191625 0.31937501 -0.498225 0.34492499"
           y="0">cleavage patterns</tspan></text>
    </g>
    <g
       id="g17">
      <path
         id="path18"
         d="m 555.38,349.87 h 228.75 v 75 H 555.38 Z"
         style="fill:#ffffff;fill-opacity:1;fill-rule:evenodd;stroke:#000000;stroke-width:1;stroke-linecap:butt;stroke-linejoin:miter;stroke-miterlimit:10;stroke-dasharray:none;stroke-opacity:1"
         transform="matrix(1.3333333,0,0,-1.3333333,-242.78267,576.696)" />
    </g>
    <g
       id="g18">
      <text
         id="text18"
         xml:space="preserve"
         transform="matrix(1.3333333,0,0,1.3333333,541.844,35.162667)"
         clip-path="url(#clipPath19)"><tspan
           id="tspan18"
           style="font-variant:normal;font-weight:normal;font-size:12.775px;font-family:'Times New Roman';writing-mode:lr-tb;fill:#000000;fill-opacity:1;fill-rule:nonzero;stroke:none"
           x="0"
           dx="0 0.51099998 -0.42157501 0.34492499 0.34492499 -0.54932499 0.22995 0.31937501 -0.191625 0.26827499 0.31937501 -0.42157501 0.34492499 0.34492499 -0.38325 0.31937501 0.22995 -0.38325 0.54932499 -0.472675 0.191625 0.22995 0.34492499 -0.42157501 0.191625 0.34492499 0.22995 -0.42157501 0.54932499 -0.38325 0.34492499"
           y="0">Acquire secondary structure by </tspan></text>
      <text
         id="text19"
         xml:space="preserve"
         transform="matrix(1.3333333,0,0,1.3333333,618.15067,56.189333)"
         clip-path="url(#clipPath20)"><tspan
           id="tspan19"
           style="font-variant:normal;font-weight:normal;font-size:12.75px;font-family:'Times New Roman';writing-mode:lr-tb;fill:#000000;fill-opacity:1;fill-rule:nonzero;stroke:none"
           x="0"
           dx="0 0.48449999 -0.204 0.53549999 -0.49724999 0.35699999 0.19125"
           y="0">RNAfold</tspan></text>
    </g>
    <g
       id="g20">
      <text
         id="text20"
         xml:space="preserve"
         transform="matrix(1.3333333,0,0,1.3333333,560.35067,76.229333)"
         clip-path="url(#clipPath21)"><tspan
           id="tspan20"
           style="font-variant:normal;font-weight:normal;font-size:12.75px;font-family:'Times New Roman';writing-mode:lr-tb;fill:#000000;fill-opacity:1;fill-rule:nonzero;stroke:none"
           x="0"
           dx="0 0.40000001"
           y="0">1.</tspan></text>
    </g>
    <g
       id="g21">
      <text
         id="text21"
         xml:space="preserve"
         transform="matrix(1.3333333,0,0,1.3333333,596.39067,76.229333)"
         clip-path="url(#clipPath22)"><tspan
           id="tspan21"
           style="font-variant:normal;font-weight:normal;font-size:12.75px;font-family:'Times New Roman';writing-mode:lr-tb;fill:#000000;fill-opacity:1;fill-rule:nonzero;stroke:none"
           x="0"
           dx="0 0.53549999 -0.36974999"
           y="0">Dot</tspan></text>
      <text
         id="text22"
         xml:space="preserve"
         transform="matrix(1.3333333,0,0,1.3333333,622.41733,76.229333)"
         clip-path="url(#clipPath23)"><tspan
           id="tspan22"
           style="font-variant:normal;font-weight:normal;font-size:12.75px;font-family:'Times New Roman';writing-mode:lr-tb;fill:#000000;fill-opacity:1;fill-rule:nonzero;stroke:none"
           x="0"
           y="0">-</tspan></text>
      <text
         id="text23"
         xml:space="preserve"
         transform="matrix(1.3333333,0,0,1.3333333,628.25733,76.229333)"
         clip-path="url(#clipPath24)"><tspan
           id="tspan23"
           style="font-variant:normal;font-weight:normal;font-size:12.75px;font-family:'Times New Roman';writing-mode:lr-tb;fill:#000000;fill-opacity:1;fill-rule:nonzero;stroke:none"
           x="0"
           dx="0 0.35699999 0.24225 -0.40799999 0.33149999 0.35699999 -0.40799999 0.19125 -0.19125 0.35699999 0.35699999 0.19125 -0.40799999 0.19125 0.19125 0.35699999 -0.36974999"
           y="0">bracket notation </tspan></text>
    </g>
    <g
       id="g24">
      <text
         id="text24"
         xml:space="preserve"
         transform="matrix(1.3333333,0,0,1.3333333,563.844,97.229333)"
         clip-path="url(#clipPath25)"><tspan
           id="tspan24"
           style="font-variant:normal;font-weight:normal;font-size:12.775px;font-family:'Times New Roman';writing-mode:lr-tb;fill:#000000;fill-opacity:1;fill-rule:nonzero;stroke:none"
           x="0"
           dx="0 0.38699999"
           y="0">2.</tspan></text>
    </g>
    <g
       id="g25">
      <text
         id="text25"
         xml:space="preserve"
         transform="matrix(1.3333333,0,0,1.3333333,599.884,97.229333)"
         clip-path="url(#clipPath26)"><tspan
           id="tspan25"
           style="font-variant:normal;font-weight:normal;font-size:12.775px;font-family:'Times New Roman';writing-mode:lr-tb;fill:#000000;fill-opacity:1;fill-rule:nonzero;stroke:none"
           x="0"
           dx="0 0.472675 -0.42157501 0.26827499 0.31937501 -0.191625 0.34492499 -0.42157501 0.191625 0.22995 -0.191625 0.34492499 0.22995 -0.38325 0.34492499 -0.191625 0.54932499 -0.472675 0.31937501 0.34492499"
           y="0">Base pair prob. seq.</tspan></text>
    </g>
    <g
       id="g26">
      <path
         id="path27"
         d="m 595.13,273.37 11.43,45.75 h 137.82 l -11.44,-45.75 z"
         style="fill:#ffffff;fill-opacity:1;fill-rule:evenodd;stroke:#000000;stroke-width:1;stroke-linecap:butt;stroke-linejoin:miter;stroke-miterlimit:10;stroke-dasharray:none;stroke-opacity:1"
         transform="matrix(1.3333333,0,0,-1.3333333,-242.78267,576.696)" />
    </g>
    <g
       id="g27">
      <text
         id="text27"
         xml:space="preserve"
         transform="matrix(1.3333333,0,0,1.3333333,597.21733,177.896)"
         clip-path="url(#clipPath28)"><tspan
           id="tspan27"
           style="font-variant:normal;font-weight:normal;font-size:12.775px;font-family:'Times New Roman';writing-mode:lr-tb;fill:#000000;fill-opacity:1;fill-rule:nonzero;stroke:none"
           x="0"
           dx="0 0.34492499 -0.38325 0.34492499 -0.191625 0.31937501 0.34492499 -0.38325 0.54932499 0.31937501 -0.38325 0.191625 0.31937501 -0.38325"
           y="0">827 augmented </tspan></text>
      <text
         id="text28"
         xml:space="preserve"
         transform="matrix(1.3333333,0,0,1.3333333,593.61733,198.92267)"
         clip-path="url(#clipPath29)"><tspan
           id="tspan28"
           style="font-variant:normal;font-weight:normal;font-size:12.775px;font-family:'Times New Roman';writing-mode:lr-tb;fill:#000000;fill-opacity:1;fill-rule:nonzero;stroke:none"
           x="0"
           dx="0 0.34492499 0.22995"
           y="0">pre</tspan></text>
      <text
         id="text29"
         xml:space="preserve"
         transform="matrix(1.3333333,0,0,1.3333333,615.79067,198.92267)"
         clip-path="url(#clipPath30)"><tspan
           id="tspan29"
           style="font-variant:normal;font-weight:normal;font-size:12.775px;font-family:'Times New Roman';writing-mode:lr-tb;fill:#000000;fill-opacity:1;fill-rule:nonzero;stroke:none"
           x="0"
           y="0">-</tspan></text>
      <text
         id="text30"
         xml:space="preserve"
         transform="matrix(1.3333333,0,0,1.3333333,621.65733,198.92267)"
         clip-path="url(#clipPath31)"><tspan
           id="tspan30"
           style="font-variant:normal;font-weight:normal;font-size:12.775px;font-family:'Times New Roman';writing-mode:lr-tb;fill:#000000;fill-opacity:1;fill-rule:nonzero;stroke:none"
           x="0"
           dx="0 0.54932499 -0.54932499 0.472675 -0.21717501 -0.21717501 -0.191625 0.26827499 0.31937501 -0.38325 0.54932499"
           y="0">miRNA seq. </tspan></text>
    </g>
    <g
       id="g31">
      <path
         id="path32"
         d="m 192.38,277.12 h 150 v 38.25 h -150 z"
         style="fill:#ffffff;fill-opacity:1;fill-rule:evenodd;stroke:#000000;stroke-width:1;stroke-linecap:butt;stroke-linejoin:miter;stroke-miterlimit:10;stroke-dasharray:none;stroke-opacity:1"
         transform="matrix(1.3333333,0,0,-1.3333333,-242.78267,576.696)" />
    </g>
    <g
       id="g32">
      <text
         id="text32"
         xml:space="preserve"
         transform="matrix(1.3333333,0,0,1.3333333,73.284,177.896)"
         clip-path="url(#clipPath33)"><tspan
           id="tspan32"
           style="font-variant:normal;font-weight:normal;font-size:12.775px;font-family:'Times New Roman';writing-mode:lr-tb;fill:#000000;fill-opacity:1;fill-rule:nonzero;stroke:none"
           x="0"
           dx="0 -0.3066 0.191625 -0.191625 0.31937501 -0.191625 0.26827499 0.31937501 0.22995 -0.54932499 0.31937501 0.26827499"
           y="0">Time series </tspan></text>
      <text
         id="text33"
         xml:space="preserve"
         transform="matrix(1.3333333,0,0,1.3333333,62.057333,198.92267)"
         clip-path="url(#clipPath34)"><tspan
           id="tspan33"
           style="font-variant:normal;font-weight:normal;font-size:12.775px;font-family:'Times New Roman';writing-mode:lr-tb;fill:#000000;fill-opacity:1;fill-rule:nonzero;stroke:none"
           x="0"
           dx="0 0.191625 0.22995 -0.42157501 0.34492499 0.26827499 0.22995 -0.38325 0.22995 0.54932499 -0.42157501 0.191625 0.191625 0.34492499"
           y="0">transformation</tspan></text>
    </g>
    <g
       id="g34">
      <path
         id="path35"
         d="m 184.88,183.37 11.25,45 h 138.75 l -11.25,-45 z"
         style="fill:#ffffff;fill-opacity:1;fill-rule:evenodd;stroke:#000000;stroke-width:1;stroke-linecap:butt;stroke-linejoin:miter;stroke-miterlimit:10;stroke-dasharray:none;stroke-opacity:1"
         transform="matrix(1.3333333,0,0,-1.3333333,-242.78267,576.696)" />
    </g>
    <g
       id="g35">
      <text
         id="text35"
         xml:space="preserve"
         transform="matrix(1.3333333,0,0,1.3333333,42.017333,298.736)"
         clip-path="url(#clipPath36)"><tspan
           id="tspan35"
           style="font-variant:normal;font-weight:normal;font-size:12.775px;font-family:'Times New Roman';writing-mode:lr-tb;fill:#000000;fill-opacity:1;fill-rule:nonzero;stroke:none"
           x="0"
           dx="0 0.37047499 -0.35769999 0.37047499 0.37047499 -0.191625 0.574875 -0.35769999 0.2044 0.2044 0.2044 -0.35769999 0.34492499 0.25549999 0.2044 -0.396025 0.2044 0.34492499"
           y="0">3308 multivariate </tspan></text>
      <text
         id="text36"
         xml:space="preserve"
         transform="matrix(1.3333333,0,0,1.3333333,66.217333,319.76267)"
         clip-path="url(#clipPath37)"><tspan
           id="tspan36"
           style="font-variant:normal;font-weight:normal;font-size:12.775px;font-family:'Times New Roman';writing-mode:lr-tb;fill:#000000;fill-opacity:1;fill-rule:nonzero;stroke:none"
           x="0"
           dx="0 0.191625 0.191625 -0.191625 0.31937501 -0.191625 0.26827499 0.31937501 -0.498225 0.191625 0.31937501"
           y="0">time series</tspan></text>
    </g>
    <g
       id="g37">
      <path
         id="path38"
         d="m 391.88,190.12 h 142.5 v 31.5 h -142.5 z"
         style="fill:#ffffff;fill-opacity:1;fill-rule:evenodd;stroke:#000000;stroke-width:1;stroke-linecap:butt;stroke-linejoin:miter;stroke-miterlimit:10;stroke-dasharray:none;stroke-opacity:1"
         transform="matrix(1.3333333,0,0,-1.3333333,-242.78267,576.696)" />
    </g>
    <g
       id="g38">
      <text
         id="text38"
         xml:space="preserve"
         transform="matrix(1.3333333,0,0,1.3333333,328.45733,298.736)"
         clip-path="url(#clipPath39)"><tspan
           id="tspan38"
           style="font-variant:normal;font-weight:normal;font-size:12.775px;font-family:'Times New Roman';writing-mode:lr-tb;fill:#000000;fill-opacity:1;fill-rule:nonzero;stroke:none"
           x="0"
           dx="0 0.472675 -0.38325 0.31937501 0.34492499 -0.42157501 0.191625 -0.191625 0.34492499 0.31937501 -0.472675 0.31937501 0.34492499"
           y="0">Rocket based </tspan></text>
      <text
         id="text39"
         xml:space="preserve"
         transform="matrix(1.3333333,0,0,1.3333333,323.724,319.76267)"
         clip-path="url(#clipPath40)"><tspan
           id="tspan39"
           style="font-variant:normal;font-weight:normal;font-size:12.775px;font-family:'Times New Roman';writing-mode:lr-tb;fill:#000000;fill-opacity:1;fill-rule:nonzero;stroke:none"
           x="0"
           dx="0 0.191625 0.22995 -0.42157501 0.34492499 0.26827499 0.22995 -0.38325 0.22995 0.54932499 -0.42157501 0.191625 0.191625 0.34492499"
           y="0">transformation</tspan></text>
    </g>
    <g
       id="g40">
      <path
         id="path41"
         d="m 310.87,388.63 56.56,-0.01 v -1 l -56.56,0.01 z m 55.56,2.49 6,-3 -6,-3 z"
         style="fill:#000000;fill-opacity:1;fill-rule:nonzero;stroke:none"
         transform="matrix(1.3333333,0,0,-1.3333333,-242.78267,576.696)" />
    </g>
    <g
       id="g41">
      <path
         id="path42"
         d="m 502.13,388.63 48.22,-0.42 v -1 l -48.23,0.42 z m 47.25,2.09 5.97,-3.06 -6.03,-2.94 z"
         style="fill:#000000;fill-opacity:1;fill-rule:nonzero;stroke:none"
         transform="matrix(1.3333333,0,0,-1.3333333,-242.78267,576.696)" />
    </g>
    <g
       id="g42">
      <path
         id="path43"
         d="M 670.62,349.88 V 323.5 h -1 v 26.38 z m 2.5,-25.38 -3,-6 -3,6 z"
         style="fill:#000000;fill-opacity:1;fill-rule:nonzero;stroke:none"
         transform="matrix(1.3333333,0,0,-1.3333333,-242.78267,576.696)" />
    </g>
    <g
       id="g43">
      <path
         id="path44"
         d="m 600.16,296.38 -59.28,-0.01 v -1 l 59.28,0.01 z m -58.28,2.49 -6,-3 6,-3 z"
         style="fill:#000000;fill-opacity:1;fill-rule:nonzero;stroke:none"
         transform="matrix(1.3333333,0,0,-1.3333333,-242.78267,576.696)" />
    </g>
    <g
       id="g44">
      <path
         id="path45"
         d="m 397.86,296.38 -50.48,-0.01 v -1 l 50.48,0.01 z m -49.48,2.49 -6,-3 6,-3 z"
         style="fill:#000000;fill-opacity:1;fill-rule:nonzero;stroke:none"
         transform="matrix(1.3333333,0,0,-1.3333333,-242.78267,576.696)" />
    </g>
    <g
       id="g45">
      <path
         id="path46"
         d="m 266.96,277.14 -1.42,-43.74 1,-0.03 1.42,43.74 z m -3.89,-42.66 2.81,-6.09 3.19,5.9 z"
         style="fill:#000000;fill-opacity:1;fill-rule:nonzero;stroke:none"
         transform="matrix(1.3333333,0,0,-1.3333333,-242.78267,576.696)" />
    </g>
    <g
       id="g46">
      <path
         id="path47"
         d="m 577.13,183.37 11.25,45 h 171.75 l -11.25,-45 z"
         style="fill:#ffffff;fill-opacity:1;fill-rule:evenodd;stroke:#000000;stroke-width:1;stroke-linecap:butt;stroke-linejoin:miter;stroke-miterlimit:10;stroke-dasharray:none;stroke-opacity:1"
         transform="matrix(1.3333333,0,0,-1.3333333,-242.78267,576.696)" />
    </g>
    <g
       id="g47">
      <text
         id="text47"
         xml:space="preserve"
         transform="matrix(1.3333333,0,0,1.3333333,597.61733,298.46933)"
         clip-path="url(#clipPath48)"><tspan
           id="tspan47"
           style="font-variant:normal;font-weight:normal;font-size:12.775px;font-family:'Times New Roman';writing-mode:lr-tb;fill:#000000;fill-opacity:1;fill-rule:nonzero;stroke:none"
           x="0"
           dx="0 0.34492499 -0.38325 0.34492499 0.34492499 -0.191625 0.191625 0.34492499 -0.472675 0.191625 0.31937501 -0.38325 0.31937501 0.31937501"
           y="0">3308 instances</tspan></text>
    </g>
    <g
       id="g48">
      <text
         id="text48"
         xml:space="preserve"
         transform="matrix(1.3333333,0,0,1.3333333,564.01733,319.496)"
         clip-path="url(#clipPath49)"><tspan
           id="tspan48"
           style="font-variant:normal;font-weight:normal;font-size:12.775px;font-family:'Times New Roman';writing-mode:lr-tb;fill:#000000;fill-opacity:1;fill-rule:nonzero;stroke:none"
           x="0"
           dx="0 0.43435001 -0.42157501 0.31937501 0.34492499 -0.191625 0.34492499 -0.42157501 0.26827499 -0.191625 0.34492499 0.34492499 -0.16607501 0.34492499 -0.38325 0.54932499 0.22995 -0.42157501 0.31937501 0.191625 -0.38325 0.22995 0.31937501 0.26827499"
           y="0">Each has 2k~5k features </tspan></text>
    </g>
    <g
       id="g49">
      <path
         id="path50"
         d="m 328.87,205.37 h 57.74 v 1 h -57.74 z m 56.74,-2.5 6,3.01 -6,2.99 z"
         style="fill:#000000;fill-opacity:1;fill-rule:nonzero;stroke:none"
         transform="matrix(1.3333333,0,0,-1.3333333,-242.78267,576.696)" />
    </g>
    <g
       id="g50">
      <path
         id="path51"
         d="m 534.38,205.17 43.2,0.18 -0.01,1 -43.2,-0.18 z m 42.21,-2.32 5.99,3.02 -6.02,2.98 z"
         style="fill:#000000;fill-opacity:1;fill-rule:nonzero;stroke:none"
         transform="matrix(1.3333333,0,0,-1.3333333,-242.78267,576.696)" />
    </g>
  </g>
</svg>
